<svg width="17" height="16" viewBox="0 0 17 16" fill="none" xmlns="http://www.w3.org/2000/svg">
<path d="M15.6024 12.2187C15.6024 12.4587 15.5491 12.7054 15.4357 12.9454C15.3224 13.1854 15.1757 13.412 14.9824 13.6254C14.6557 13.9854 14.2957 14.2454 13.8891 14.412C13.4891 14.5787 13.0557 14.6654 12.5891 14.6654C11.9091 14.6654 11.1824 14.5054 10.4157 14.1787C9.64906 13.852 8.8824 13.412 8.1224 12.8587C7.35573 12.2987 6.62906 11.6787 5.93573 10.992C5.24906 10.2987 4.62906 9.57203 4.07573 8.81203C3.52906 8.05203 3.08906 7.29203 2.76906 6.5387C2.44906 5.7787 2.28906 5.05203 2.28906 4.3587C2.28906 3.90536 2.36906 3.47203 2.52906 3.07203C2.68906 2.66536 2.9424 2.29203 3.29573 1.9587C3.7224 1.5387 4.18906 1.33203 4.6824 1.33203C4.86906 1.33203 5.05573 1.37203 5.2224 1.45203C5.39573 1.53203 5.54906 1.65203 5.66906 1.82536L7.21573 4.00537C7.33573 4.17203 7.4224 4.32536 7.4824 4.47203C7.5424 4.61203 7.57573 4.75203 7.57573 4.8787C7.57573 5.0387 7.52906 5.1987 7.43573 5.35203C7.34906 5.50536 7.2224 5.66536 7.0624 5.82536L6.55573 6.35203C6.4824 6.42537 6.44906 6.51203 6.44906 6.6187C6.44906 6.67203 6.45573 6.7187 6.46906 6.77203C6.48906 6.82537 6.50906 6.86537 6.5224 6.90537C6.6424 7.12537 6.84906 7.41203 7.1424 7.7587C7.4424 8.10537 7.7624 8.4587 8.10906 8.81203C8.46906 9.16537 8.81573 9.49203 9.16906 9.79203C9.51573 10.0854 9.8024 10.2854 10.0291 10.4054C10.0624 10.4187 10.1024 10.4387 10.1491 10.4587C10.2024 10.4787 10.2557 10.4854 10.3157 10.4854C10.4291 10.4854 10.5157 10.4454 10.5891 10.372L11.0957 9.87203C11.2624 9.70537 11.4224 9.5787 11.5757 9.4987C11.7291 9.40537 11.8824 9.3587 12.0491 9.3587C12.1757 9.3587 12.3091 9.38537 12.4557 9.44537C12.6024 9.50537 12.7557 9.59203 12.9224 9.70537L15.1291 11.272C15.3024 11.392 15.4224 11.532 15.4957 11.6987C15.5624 11.8654 15.6024 12.032 15.6024 12.2187Z" stroke="white" stroke-width="1.2" stroke-miterlimit="10"/>
</svg>
