<svg width="17" height="16" viewBox="0 0 17 16" fill="none" xmlns="http://www.w3.org/2000/svg">
<path d="M5.79863 12.3283L6.28178 12.61C7.08895 13.0807 8.00629 13.332 8.96356 13.332C11.9091 13.332 14.2969 10.9442 14.2969 7.9987C14.2969 5.05318 11.9091 2.66536 8.96356 2.66536C6.01802 2.66536 3.63021 5.05318 3.63021 7.9987C3.63021 8.95623 3.8817 9.8739 4.35266 10.6812L4.63425 11.1639L4.19859 12.765L5.79863 12.3283ZM2.29966 14.6654L3.20097 11.353C2.62618 10.3678 2.29688 9.2217 2.29688 7.9987C2.29688 4.3168 5.28164 1.33203 8.96356 1.33203C12.6454 1.33203 15.6302 4.3168 15.6302 7.9987C15.6302 11.6806 12.6454 14.6654 8.96356 14.6654C7.74096 14.6654 6.59523 14.3363 5.61013 13.7618L2.29966 14.6654ZM6.55777 4.87092C6.64702 4.86464 6.73658 4.86368 6.82595 4.86804C6.86206 4.87042 6.89799 4.87459 6.93395 4.87874C7.04012 4.891 7.15688 4.95566 7.19613 5.04466C7.39501 5.4956 7.58798 5.94913 7.77502 6.40512C7.81629 6.50578 7.79142 6.63625 7.71289 6.7625C7.67302 6.82723 7.61041 6.91803 7.53788 7.0109C7.46248 7.10736 7.30022 7.28476 7.30022 7.28476C7.30022 7.28476 7.23448 7.36356 7.25925 7.46163C7.26891 7.4987 7.2997 7.5527 7.32761 7.5981C7.34307 7.62323 7.35742 7.6457 7.36674 7.66123C7.53735 7.9461 7.76669 8.2349 8.04682 8.50643C8.12709 8.58423 8.20496 8.66363 8.28869 8.73736C8.60089 9.01263 8.95409 9.23756 9.33556 9.40416L9.33895 9.4057C9.39529 9.42996 9.42422 9.44323 9.50669 9.47823C9.54829 9.49583 9.59082 9.51103 9.63449 9.52256C9.65029 9.5267 9.66649 9.52903 9.68275 9.53016C9.79055 9.53663 9.85289 9.4675 9.87949 9.4357C10.3618 8.85136 10.406 8.81323 10.4093 8.8135V8.81456C10.4727 8.74776 10.5724 8.72456 10.6613 8.73003C10.7019 8.7325 10.7423 8.7403 10.7792 8.75716C11.1338 8.9189 11.7134 9.17116 11.7134 9.17116L12.1011 9.34543C12.166 9.37676 12.2253 9.45056 12.2282 9.5223C12.2299 9.5669 12.2347 9.6389 12.2188 9.77063C12.1979 9.9431 12.1454 10.1508 12.0933 10.2596C12.0566 10.3359 12.0092 10.4036 11.954 10.461C11.8791 10.5387 11.8235 10.5859 11.7335 10.653C11.6787 10.6938 11.6503 10.713 11.6503 10.713C11.5577 10.7714 11.5055 10.8006 11.3952 10.8593C11.2236 10.9507 11.034 11.0032 10.8398 11.0132C10.716 11.0196 10.5925 11.0285 10.4688 11.0218C10.4634 11.0215 10.09 10.9642 10.09 10.9642C9.14209 10.7148 8.26542 10.2478 7.52978 9.60003C7.37937 9.46763 7.23989 9.32436 7.09752 9.18263C6.50481 8.59256 6.0561 7.9563 5.78402 7.35443C5.64984 7.05763 5.56488 6.73976 5.56354 6.41268C5.56108 6.00806 5.69355 5.61416 5.94002 5.29327C5.9886 5.23001 6.03472 5.1644 6.11428 5.08927C6.19854 5.0097 6.25217 4.96699 6.30994 4.93744C6.38694 4.89804 6.47151 4.87698 6.55777 4.87092Z" fill="#F8F8F8"/>
</svg>
