<?xml version="1.0" encoding="UTF-8"?>
<svg id="Layer_1" data-name="Layer 1" xmlns="http://www.w3.org/2000/svg" xmlns:xlink="http://www.w3.org/1999/xlink" version="1.1" viewBox="0 0 576.74 213.34">
  <defs>
    <style>
      .cls-1 {
        clip-path: url(#clippath);
      }

      .cls-2 {
        fill: none;
      }

      .cls-2, .cls-3, .cls-4, .cls-5 {
        stroke-width: 0px;
      }

      .cls-3 {
        fill: #610631;
      }

      .cls-6 {
        clip-path: url(#clippath-1);
      }

      .cls-7 {
        clip-path: url(#clippath-4);
      }

      .cls-8 {
        clip-path: url(#clippath-3);
      }

      .cls-9 {
        clip-path: url(#clippath-2);
      }

      .cls-10 {
        clip-path: url(#clippath-5);
      }

      .cls-4 {
        fill-rule: evenodd;
      }

      .cls-4, .cls-11, .cls-5 {
        fill: #fff;
      }

      .cls-11 {
        font-family: TimesNewRomanPS-BoldMT, 'Times New Roman';
        font-size: 16.44px;
        font-weight: 700;
      }
    </style>
    <clipPath id="clippath">
      <path class="cls-2" d="M232.47,21.28s-2.09.96-1.95,3.92v.81l-.53-.58c-2.03-2.2-4.14-1.42-4.14-1.42-4.31,1.89-7.82,1.58-7.82,1.58l-.12.03s.29,3.61-1.6,7.9c0,0-.77,2.16,1.41,4.17l.58.55h-.8c-2.96-.18-3.92,1.93-3.92,1.93-1.71,4.35-4.41,6.61-4.41,6.61l-.07.13s2.76,2.34,4.48,6.69c0,0,.93,2.1,3.92,1.96h.8l-.58.54c-2.18,2.01-1.41,4.15-1.41,4.15,1.89,4.3,1.59,7.77,1.59,7.77v.15s3.63-.31,7.95,1.58c0,0,2.12.78,4.14-1.41l.53-.56v.8c-.14,2.96,1.95,3.93,1.95,3.93,4.37,1.71,6.7,4.46,6.7,4.46l.13-.05s2.24-2.69,6.61-4.4c0,0,2.09-.96,1.92-3.93v-.8l.56.56c2.01,2.19,4.14,1.41,4.14,1.41,4.31-1.89,7.91-1.58,7.91-1.58l.03-.15s-.29-3.47,1.56-7.77c0,0,.81-2.14-1.42-4.15l-.53-.54h.79c2.97.14,3.93-1.96,3.93-1.96,1.71-4.35,4.47-6.69,4.47-6.69l-.09-.13s-2.67-2.25-4.38-6.61c0,0-.96-2.11-3.93-1.93h-.79l.53-.55c2.23-2.01,1.42-4.17,1.42-4.17-1.85-4.29-1.58-7.9-1.58-7.9l-.15-.03s-3.45.31-7.76-1.58c0,0-2.13-.78-4.14,1.42l-.56.58v-.81c.17-2.96-1.92-3.92-1.92-3.92-4.38-1.72-6.61-4.38-6.61-4.38l-.13-.08s-2.33,2.75-6.7,4.47"/>
    </clipPath>
    <clipPath id="clippath-1">
      <path class="cls-2" d="M231.83,46.88c0,4.08,3.29,7.38,7.34,7.38s7.37-3.29,7.37-7.38-3.3-7.36-7.37-7.36-7.34,3.31-7.34,7.36"/>
    </clipPath>
    <clipPath id="clippath-2">
      <path class="cls-2" d="M37.61,20.75s-2.08.98-1.95,4.01v.81l-.57-.6c-2.04-2.21-4.23-1.43-4.23-1.43-4.38,1.94-7.92,1.61-7.92,1.61l-.15.03s.31,3.67-1.63,8.06c0,0-.79,2.22,1.43,4.24l.58.58h-.78c-3.03-.13-4.03,1.97-4.03,1.97-1.74,4.47-4.47,6.75-4.47,6.75l-.09.13s2.83,2.39,4.57,6.85c0,0,1,2.11,4.03,1.97h.78l-.58.56c-2.21,2.04-1.43,4.24-1.43,4.24,1.94,4.38,1.6,7.93,1.6,7.93l.04.13s3.69-.28,8.07,1.63c0,0,2.19.8,4.23-1.44l.57-.57v.83c-.13,3.02,1.95,3.99,1.95,3.99,4.48,1.74,6.88,4.58,6.88,4.58l.12-.1s2.29-2.74,6.75-4.48c0,0,2.11-.96,1.97-3.99v-.83l.55.57c2.06,2.24,4.25,1.44,4.25,1.44,4.39-1.91,8.05-1.63,8.05-1.63l.03-.13s-.29-3.55,1.63-7.93c0,0,.8-2.2-1.44-4.24l-.58-.56h.82c3,.15,3.99-1.97,3.99-1.97,1.74-4.46,4.57-6.85,4.57-6.85l-.1-.13s-2.73-2.29-4.47-6.75c0,0-.99-2.1-3.99-1.97h-.82l.58-.58c2.24-2.02,1.44-4.24,1.44-4.24-1.92-4.39-1.63-8.06-1.63-8.06l-.13-.03s-3.56.34-7.95-1.61c0,0-2.19-.78-4.25,1.43l-.55.6v-.81c.14-3.03-1.97-4.01-1.97-4.01-4.46-1.74-6.75-4.48-6.75-4.48l-.12-.1s-2.4,2.83-6.88,4.58"/>
    </clipPath>
    <clipPath id="clippath-3">
      <path class="cls-2" d="M37.28,46.88c0,4,3.21,7.23,7.21,7.23s7.23-3.23,7.23-7.23-3.23-7.2-7.23-7.2-7.21,3.24-7.21,7.2"/>
    </clipPath>
    <clipPath id="clippath-4">
      <path class="cls-2" d="M133.91,20.34s-2.17,1-2,4.06v.83l-.59-.58c-2.06-2.29-4.3-1.46-4.3-1.46-4.45,1.96-8.05,1.63-8.05,1.63l-.14.02s.29,3.74-1.66,8.18c0,0-.84,2.27,1.45,4.32l.59.59h-.82c-3.07-.16-4.07,2-4.07,2-1.79,4.52-4.56,6.85-4.56,6.85l-.08.13s2.85,2.41,4.64,6.95c0,0,.99,2.15,4.07,2h.82l-.59.59c-2.29,2.05-1.45,4.29-1.45,4.29,1.94,4.45,1.62,8.05,1.62,8.05l.04.15s3.74-.31,8.19,1.67c0,0,2.24.79,4.3-1.49l.59-.58v.82c-.17,3.08,2,4.1,2,4.1,4.51,1.78,6.95,4.62,6.95,4.62l.15-.08s2.29-2.76,6.82-4.54c0,0,2.17-1.01,2.01-4.1v-.82l.59.58c2.06,2.29,4.3,1.49,4.3,1.49,4.45-1.98,8.17-1.67,8.17-1.67l.03-.15s-.3-3.6,1.67-8.05c0,0,.77-2.24-1.51-4.29l-.57-.59h.83c3.06.15,4.06-2,4.06-2,1.76-4.54,4.61-6.95,4.61-6.95l-.05-.13s-2.8-2.34-4.55-6.85c0,0-1.01-2.16-4.06-2h-.83l.57-.59c2.28-2.05,1.51-4.32,1.51-4.32-1.98-4.44-1.67-8.18-1.67-8.18l-.15-.02s-3.6.32-8.05-1.63c0,0-2.24-.82-4.3,1.46l-.59.58v-.83c.15-3.06-2.01-4.06-2.01-4.06-4.53-1.77-6.82-4.54-6.82-4.54l-.15-.11s-2.44,2.88-6.95,4.64"/>
    </clipPath>
    <clipPath id="clippath-5">
      <path class="cls-2" d="M133.67,46.88c0,4,3.22,7.23,7.19,7.23s7.25-3.23,7.25-7.23-3.27-7.2-7.25-7.2-7.19,3.24-7.19,7.2"/>
    </clipPath>
  </defs>
  <g>
    <rect class="cls-5" x="303.29" width="1.64" height="206.19"/>
    <g>
      <g>
        <g>
          <path class="cls-5" d="M239.06,14.3l.1-.17-.1.17ZM239.19,79.39c.35-.39,2.75-3.07,7.23-4.8,0,0,.5-.23.98-.81.51-.61.98-1.52.98-2.96v-1.66l.96.93c1.24,1.38,2.48,1.65,3.33,1.65.58,0,.96-.13.96-.13,3.61-1.59,6.76-1.78,8.05-1.78h.47c0-.11-.04-.31-.04-.62,0-1.3.2-4.33,1.78-7.87,0,0,.12-.35.12-.97,0-.84-.27-2.1-1.63-3.33l-.93-.93h1.65c1.43,0,2.39-.5,2.96-1.01.59-.49.8-.99.8-.98,1.65-4.2,4.18-6.72,4.81-7.29-.41-.33-3.06-2.75-4.81-7.2,0,0-.21-.49-.8-1-.57-.49-1.53-.98-2.96-.98h-1.65l.95-.95c1.33-1.2,1.61-2.49,1.61-3.34,0-.58-.12-.95-.12-.95-1.6-3.6-1.78-6.76-1.8-8.07,0-.2.02-.34.02-.44h-.63c-1.26,0-4.31-.19-7.86-1.75,0,0-.38-.14-.96-.14-.85,0-2.1.26-3.33,1.63l-.96.95v-1.67c0-1.42-.47-2.35-.98-2.95-.48-.58-.98-.83-.98-.83-4.69-1.81-7.13-4.66-7.23-4.77-.55.58-3.03,3.13-7.25,4.77,0,0-.5.25-1.01.83-.48.6-1,1.53-1,2.95,0,.13.03.22.03.35v1.32l-.95-.95c-1.25-1.37-2.51-1.63-3.33-1.63-.62,0-.99.14-.97.12-3.55,1.57-6.58,1.76-7.87,1.76h-.62v.44c0,1.3-.19,4.47-1.76,8.06,0,0-.13.37-.13.96,0,.85.24,2.14,1.64,3.34l.92.95h-1.64c-1.48,0-2.4.49-2.99.98-.59.51-.81,1-.8,1-1.83,4.65-4.66,7.11-4.79,7.2.6.57,3.12,3.06,4.78,7.28,0,0,.22.5.81.99.59.51,1.51,1.01,2.99,1.01h1.64l-.92.95c-1.38,1.21-1.64,2.46-1.64,3.3,0,.61.13.97.13.97,1.56,3.54,1.74,6.57,1.74,7.87v.62h.45c1.31,0,4.45.19,8.04,1.75,0,0,.37.15.99.15.82,0,2.08-.27,3.33-1.65l.95-.93v1.36c0,.1-.03.2-.03.3,0,1.44.51,2.35,1,2.96.51.58.98.81.98.81,4.23,1.64,6.73,4.17,7.27,4.8M239.02,79.76s-2.51-2.97-7.22-4.82c-.06,0-2.24-1.04-2.24-4.12v-.75l-.26.3c-1.31,1.44-2.7,1.74-3.61,1.74-.67,0-1.09-.16-1.11-.16-3.56-1.56-6.67-1.75-7.92-1.75-.4,0-.61.04-.61.04h-.2v-.17s-.04-.17-.04-.17v-.02s.04-.23.04-.66c0-1.27-.2-4.24-1.72-7.73,0,0-.17-.44-.17-1.11,0-.9.33-2.3,1.76-3.59l.28-.29h-.72c-3.1,0-4.13-2.18-4.15-2.23-.93-2.33-2.12-4.16-3.11-5.38-.95-1.19-1.69-1.83-1.69-1.83l-.12-.12.07-.15.12-.16s2.89-2.4,4.74-7.13c0-.04,1.03-2.22,4.13-2.22.1,0,.22,0,.32.02h.4l-.28-.29c-1.45-1.31-1.76-2.7-1.76-3.63,0-.65.17-1.09.17-1.12,1.54-3.53,1.73-6.63,1.72-7.9v-.76l.15-.03.19-.05h.03s.21.02.65.02c1.23,0,4.21-.17,7.73-1.71.02-.02.44-.15,1.11-.15.91-.03,2.3.31,3.61,1.71l.26.31.04-.41c-.04-.12-.04-.22-.04-.35,0-3.06,2.19-4.1,2.24-4.13,2.34-.88,4.16-2.08,5.39-3.07,1.21-.99,1.83-1.71,1.83-1.74l.13-.1.12.08.19.13s2.39,2.86,7.1,4.69c.03.03,2.25,1.07,2.25,4.13v.76l.27-.31c1.29-1.41,2.68-1.74,3.59-1.74.67.03,1.09.16,1.11.18,3.48,1.54,6.47,1.71,7.72,1.71.43,0,.66-.02.66-.02h.06l.32.08v.17s-.03.21-.03.59c0,1.28.2,4.37,1.72,7.93.02,0,.16.44.18,1.09,0,.93-.32,2.33-1.76,3.6l-.26.32h.4c.1-.02.22-.02.33-.02,3.08,0,4.12,2.18,4.14,2.22.93,2.37,2.08,4.16,3.02,5.35.96,1.18,1.69,1.78,1.72,1.82l.17.27-.12.12s-2.95,2.51-4.79,7.25c-.02.02-1.06,2.2-4.14,2.2h-.72l.26.29c1.45,1.29,1.76,2.68,1.76,3.59,0,.67-.16,1.11-.16,1.11-1.51,3.48-1.71,6.46-1.71,7.73v.68s0,.01,0,.01l-.06.33h-.17s-.22-.04-.62-.04c-1.26,0-4.37.2-7.9,1.75-.02,0-.44.16-1.11.16-.92,0-2.31-.3-3.59-1.74l-.27-.3v.75c0,3.07-2.21,4.12-2.25,4.12-2.34.92-4.15,2.11-5.33,3.06-1.19.94-1.77,1.64-1.82,1.68l-.27.2-.13-.12Z"/>
          <path class="cls-5" d="M239.06,11.24l.1-.17-.1.17ZM239.19,82.43c.32-.37,2.98-3.31,7.89-5.23,0,0,.55-.24,1.08-.88.59-.66,1.12-1.68,1.12-3.27v-1.76l1.02,1.03c1.33,1.47,2.7,1.76,3.64,1.76.31,0,.58-.02.77-.08.19-.02.3-.07.3-.07,3.92-1.71,7.37-1.94,8.77-1.94.25,0,.4,0,.53.02,0-.09-.04-.34-.04-.69.04-1.41.23-4.73,1.91-8.6,0,0,.18-.41.18-1.06,0-.92-.31-2.31-1.82-3.66l-1.02-1.01h1.45c.12.03.24.03.34.03,1.6,0,2.6-.56,3.25-1.11.66-.54.9-1.1.9-1.07,1.81-4.65,4.59-7.38,5.24-7.98-.38-.33-3.34-2.97-5.24-7.89,0,.02-.25-.53-.9-1.09-.65-.53-1.66-1.09-3.25-1.09h-1.79l1.06-1c1.47-1.34,1.78-2.72,1.78-3.65,0-.66-.18-1.06-.15-1.05-1.77-3.95-1.94-7.37-1.94-8.81v-.54c-.09,0-.34.05-.68.05-1.42,0-4.75-.22-8.59-1.91,0,0-.42-.17-1.08-.17-.94.03-2.31.3-3.64,1.78l-1.02,1.02v-1.77c0-1.58-.53-2.63-1.12-3.26-.53-.65-1.08-.9-1.08-.9-5.24-2.04-7.92-5.25-7.86-5.2-.61.62-3.34,3.42-7.98,5.2,0,.02-.52.25-1.07.9-.55.63-1.11,1.68-1.11,3.26v1.77l-1-1.02c-1.34-1.48-2.74-1.75-3.64-1.78-.68,0-1.08.17-1.08.15-3.86,1.71-7.18,1.93-8.58,1.93-.38,0-.6-.05-.73-.05,0,.12.03.31.03.54,0,1.44-.19,4.87-1.93,8.8.03,0-.16.4-.16,1.06,0,.93.34,2.31,1.79,3.65l1.03,1h-1.77c-1.58,0-2.63.56-3.28,1.09-.65.56-.86,1.09-.86,1.09-2.07,5.25-5.27,7.92-5.25,7.88h0c.63.6,3.42,3.34,5.25,7.96,0,0,.21.56.86,1.1.65.55,1.7,1.11,3.28,1.11.1,0,.22,0,.32-.03h1.45l-1.03,1.03c-1.45,1.33-1.79,2.71-1.79,3.63,0,.65.16,1.06.16,1.06,1.69,3.85,1.91,7.17,1.91,8.57,0,.38-.03.63-.03.72.14-.02.33-.02.55-.02,1.42,0,4.86.23,8.79,1.94,0,0,.4.15,1.08.15.9,0,2.29-.29,3.64-1.78l1-1v1.76c0,1.59.55,2.61,1.11,3.27.55.65,1.07.88,1.07.88,4.64,1.8,7.37,4.62,7.95,5.23M239.02,82.83s-2.75-3.26-7.92-5.28c0,0-2.43-1.14-2.43-4.5,0-.11,0-.23.02-.35v-.48l-.32.33c-1.43,1.56-2.95,1.92-3.94,1.92-.75,0-1.19-.17-1.22-.19-3.88-1.69-7.26-1.9-8.65-1.9-.44,0-.67.03-.67.03l-.18.02-.05-.2-.03-.17v-.77c.03-1.37-.19-4.62-1.87-8.44,0,0-.15-.48-.15-1.2,0-1,.32-2.53,1.9-3.94l.32-.32h-.82c-3.37,0-4.49-2.39-4.52-2.45-1-2.56-2.3-4.54-3.41-5.88-1.04-1.34-1.85-2.01-1.85-2.01l-.14-.11.12-.16.13-.19s3.14-2.61,5.16-7.79c.02-.03,1.15-2.43,4.52-2.43h.82l-.32-.31c-1.59-1.43-1.9-2.93-1.9-3.94,0-.71.15-1.18.15-1.21,1.73-3.87,1.9-7.26,1.9-8.64v-.69l-.03-.16.18-.04.19-.04h.03s.25.01.73.01c1.39,0,4.64-.2,8.44-1.87,0,0,.47-.19,1.22-.19.99,0,2.5.34,3.9,1.91l.35.35v-.47c-.02-.15-.02-.25-.02-.37,0-3.38,2.41-4.5,2.43-4.52,2.59-1.01,4.57-2.33,5.93-3.39,1.3-1.09,1.99-1.87,1.99-1.87l.13-.13.15.11.16.11s2.61,3.16,7.8,5.17c0,.02,2.42,1.14,2.42,4.52v.84l.32-.35c1.41-1.58,2.93-1.91,3.96-1.91.71,0,1.18.19,1.18.19,3.81,1.67,7.09,1.87,8.48,1.87.44,0,.72-.01.72-.01h.04l.32.07v.17s-.02.25-.02.69c0,1.38.23,4.77,1.91,8.68,0,0,.18.47.18,1.18,0,1.02-.35,2.52-1.92,3.94l-.32.31h.82c3.38,0,4.52,2.4,4.52,2.43,1,2.59,2.29,4.54,3.33,5.84,1.03,1.32,1.82,1.95,1.85,1.99l.2.31-.12.11s-3.24,2.76-5.27,7.92c0,.04-1.14,2.43-4.52,2.43h-.82l.32.32c1.57,1.41,1.92,2.93,1.92,3.94,0,.72-.18,1.19-.18,1.2-1.69,3.81-1.89,7.07-1.89,8.47,0,.45.04.69.04.69v.06l-.04.02-.05.35-.17-.02s-.24-.03-.67-.03c-1.37,0-4.79.21-8.67,1.92,0,0-.47.17-1.18.17-1.03,0-2.55-.35-3.96-1.92l-.32-.33v.83c0,3.36-2.42,4.5-2.45,4.5-2.56,1.02-4.54,2.31-5.8,3.36-1.31,1.03-1.97,1.79-2.01,1.84l-.3.2-.1-.13Z"/>
          <path class="cls-5" d="M239.06,8.3l.1-.18-.1.18ZM239.22,85.4c.26-.35,3.16-3.58,8.53-5.7,0,0,.58-.25,1.2-.96.59-.7,1.16-1.81,1.16-3.51v-1.89l1.09,1.04c1.45,1.63,2.94,1.93,3.95,1.94.72,0,1.18-.14,1.18-.14,4.23-1.89,7.96-2.11,9.5-2.11.28,0,.46,0,.58.02v-.75c0-1.56.22-5.13,2.06-9.31,0,0,.17-.46.17-1.15-.02-1.01-.34-2.51-1.95-3.97l-1.07-1.07h1.5c.13.03.25.03.38.03,1.7,0,2.83-.6,3.55-1.19.69-.6.94-1.19.94-1.18,1.98-5.06,5.02-8.01,5.69-8.64-.35-.28-3.6-3.18-5.69-8.55,0,0-.24-.58-.94-1.18-.73-.59-1.85-1.19-3.55-1.19h-1.88l1.07-1.07c1.61-1.47,1.93-2.95,1.95-3.96,0-.72-.17-1.15-.17-1.15-1.86-4.26-2.08-7.99-2.08-9.53v-.6c-.09,0-.35.02-.77.02-1.53,0-5.13-.22-9.29-2.05,0,0-.45-.15-1.18-.15-1.01,0-2.5.28-3.97,1.93l-1.07,1.04v-1.87c0-1.7-.57-2.85-1.16-3.54-.63-.69-1.2-.97-1.2-.97-5.65-2.22-8.56-5.68-8.53-5.66-.63.65-3.59,3.71-8.63,5.66,0,.03-.59.29-1.19.97-.59.69-1.19,1.83-1.19,3.54v1.9l-1.04-1.07c-1.49-1.64-2.96-1.93-4-1.93-.69,0-1.17.15-1.14.14-4.18,1.84-7.77,2.06-9.32,2.06-.38,0-.66-.02-.76-.02,0,.13.02.33.02.6,0,1.54-.21,5.27-2.08,9.53,0,0-.15.43-.15,1.15,0,1.01.33,2.49,1.94,3.97l1.03,1.05h-1.88c-1.73,0-2.83.6-3.52,1.19-.71.6-.98,1.18-.98,1.18-2.19,5.68-5.67,8.57-5.64,8.53h-.03c.69.64,3.72,3.59,5.67,8.64,0,0,.27.59.98,1.19.7.59,1.8,1.19,3.56,1.19.1,0,.24,0,.36-.03h1.48l-1.03,1.07c-1.61,1.46-1.94,2.96-1.94,3.97,0,.7.15,1.15.15,1.15,1.84,4.15,2.06,7.73,2.06,9.28,0,.41-.03.71-.03.78.13-.02.31-.02.57-.02,1.54,0,5.29.23,9.51,2.11,0,0,.15.02.36.08.16.04.47.06.81.06,1.03,0,2.51-.31,4-1.94l1.04-1.04v1.89c0,1.7.6,2.81,1.19,3.51.6.71,1.19.96,1.16.96,5.07,1.98,8.03,5.03,8.66,5.7M239.02,85.79s-2.98-3.54-8.59-5.72c-.02,0-2.61-1.24-2.61-4.84,0-.13.04-.27.04-.42v-.54l-.4.36c-1.54,1.71-3.16,2.09-4.27,2.09-.77-.03-1.27-.2-1.28-.21-4.2-1.84-7.89-2.05-9.39-2.05-.44,0-.72.03-.72.03h-.16l-.02-.17-.04-.22v-.03s.04-.27.04-.78c0-1.5-.24-5.02-2.04-9.14,0,0-.21-.52-.21-1.29,0-1.1.37-2.71,2.06-4.26l.37-.35h-.91c-3.67,0-4.89-2.6-4.89-2.64-1.06-2.78-2.52-4.96-3.66-6.41-1.18-1.43-2.05-2.16-2.05-2.16l-.11-.11.08-.16.13-.19s3.43-2.87,5.61-8.45c0-.03,1.22-2.6,4.85-2.6h.95l-.37-.35c-1.71-1.57-2.06-3.18-2.06-4.28,0-.77.21-1.3.21-1.31,1.83-4.17,2.04-7.87,2.04-9.37v-.72l-.03-.2.17-.02.2-.05.03.03s.28,0,.76,0c1.54,0,5.05-.22,9.19-2.03,0-.02.5-.2,1.27-.2,1.11,0,2.73.37,4.27,2.08l.4.37v-.54c-.04-.14-.04-.27-.04-.39,0-3.63,2.59-4.84,2.64-4.86,2.77-1.1,4.92-2.51,6.38-3.69,1.45-1.15,2.18-2,2.18-2l.13-.14.15.08.19.13s2.85,3.43,8.45,5.62c0,.02,2.61,1.23,2.61,4.86v.95l.39-.4c1.53-1.71,3.13-2.08,4.23-2.08.77,0,1.28.19,1.28.2,4.15,1.82,7.69,2.03,9.18,2.03.52,0,.77,0,.77,0l.02-.03.02.03.37.05-.03.2s-.02.24-.02.72c0,1.49.23,5.19,2.05,9.38,0,0,.21.53.21,1.3,0,1.07-.36,2.71-2.07,4.24l-.37.38h.92c3.65,0,4.84,2.58,4.86,2.63,1.1,2.78,2.49,4.9,3.63,6.31,1.15,1.4,1.97,2.12,2.01,2.16l.16.31-.08.11s-3.55,2.98-5.72,8.6c-.02.01-1.22,2.62-4.86,2.62h-.92l.37.35c1.71,1.55,2.07,3.16,2.07,4.26,0,.77-.21,1.28-.21,1.29-1.78,4.12-2.03,7.66-2.01,9.17v.82l-.04.35h-.18s-.24-.03-.75-.03c-1.5,0-5.19.22-9.4,2.05,0,0-.51.18-1.28.18-1.1.03-2.7-.35-4.23-2.04l-.39-.39v.95c0,3.62-2.61,4.84-2.63,4.85-2.78,1.07-4.9,2.46-6.31,3.61-1.42,1.13-2.12,1.97-2.16,2.03l-.3.19-.13-.12Z"/>
          <path class="cls-5" d="M239.05,5.29l.12-.18-.12.18ZM239.22,88.4c.23-.29,3.34-3.85,9.2-6.11,0-.03.62-.33,1.26-1.07.67-.78,1.31-1.97,1.31-3.81v-1.99l1.14,1.11c1.55,1.74,3.19,2.09,4.27,2.12.79,0,1.27-.2,1.24-.2,4.57-2.01,8.59-2.25,10.25-2.25h.65c0-.07-.02-.36-.02-.81,0-1.67.24-5.53,2.23-10.02,0,0,.16-.48.16-1.26,0-1.1-.34-2.69-2.11-4.3l-1.08-1.12h1.56c.15.03.3.03.43.03,1.84,0,3.05-.65,3.79-1.3.77-.66,1.05-1.29,1.05-1.27,2.14-5.47,5.43-8.66,6.12-9.31-.3-.26-3.82-3.38-6.12-9.2,0,0-.28-.64-1.05-1.28-.74-.67-1.95-1.31-3.79-1.31h-1.98l1.08-1.12c1.77-1.57,2.11-3.2,2.11-4.27,0-.77-.16-1.26-.16-1.25-2.01-4.59-2.26-8.61-2.26-10.28,0-.27,0-.49.03-.64-.11.02-.4.04-.85.04-1.67,0-5.51-.23-10-2.23,0,0-.14-.05-.35-.1-.23-.04-.53-.07-.92-.07-1.07,0-2.71.34-4.27,2.09l-1.14,1.11v-1.99c0-1.86-.64-3.05-1.31-3.83-.64-.74-1.26-1.04-1.26-1.04-6.09-2.36-9.23-6.14-9.2-6.08v-.03c-.68.68-3.85,4.01-9.29,6.11,0,0-.63.3-1.3,1.04-.65.78-1.29,1.97-1.29,3.83v1.99l-1.09-1.11c-1.58-1.74-3.2-2.09-4.3-2.09-.79,0-1.27.17-1.27.15-4.49,2.02-8.35,2.25-10,2.25-.45,0-.77-.03-.85-.04.03.15.03.36.03.64,0,1.67-.24,5.71-2.27,10.27,0,0-.19.49-.19,1.26.03,1.08.38,2.7,2.15,4.29l1.1,1.1h-2c-1.84,0-3.06.65-3.8,1.31-.78.64-1.07,1.28-1.07,1.25-2.26,5.85-5.81,8.97-6.12,9.23.7.65,4.01,3.84,6.12,9.29,0,0,.29.63,1.07,1.29.74.65,1.96,1.3,3.8,1.3.12,0,.27,0,.42-.03h1.56l-1.1,1.13c-1.74,1.59-2.09,3.19-2.12,4.29,0,.75.19,1.26.19,1.23,1.99,4.51,2.21,8.36,2.21,10.04,0,.43,0,.73-.02.82h.67c1.64,0,5.68.24,10.24,2.25,0,0,.48.2,1.27.2,1.1-.04,2.71-.38,4.3-2.13l1.09-1.1v1.99c0,1.84.64,3.04,1.29,3.81.68.74,1.3,1.07,1.3,1.04,5.44,2.14,8.63,5.43,9.29,6.14M239.02,88.76s-3.23-3.79-9.26-6.12c-.03-.03-2.81-1.31-2.81-5.23,0-.15.04-.26.04-.4v-.66l-.45.45c-1.66,1.85-3.4,2.2-4.56,2.2-.85,0-1.39-.17-1.43-.18-4.52-1.99-8.46-2.21-10.08-2.21-.5,0-.79.02-.79.02h-.19l-.03-.17-.04-.22v-.03s.01-.31.01-.82c0-1.64-.22-5.43-2.18-9.87,0-.05-.19-.55-.19-1.4,0-1.17.36-2.94,2.2-4.57l.45-.43h-1.04c-3.9,0-5.22-2.79-5.22-2.83-1.18-3.01-2.73-5.33-3.97-6.87-1.23-1.56-2.18-2.37-2.18-2.37l-.13-.12.09-.15.12-.19.04-.02s3.67-3.07,6.03-9.1c0-.03,1.33-2.81,5.22-2.81.12,0,.27,0,.42.01h.63l-.45-.43c-1.84-1.65-2.2-3.42-2.2-4.58,0-.85.19-1.36.2-1.41,1.98-4.5,2.22-8.49,2.22-10.11,0-.49-.05-.77-.05-.77v-.16l.17-.06.22-.03h.06s.27,0,.82,0c1.62,0,5.41-.22,9.88-2.18,0,0,.54-.2,1.39-.2,1.17,0,2.91.41,4.56,2.22l.45.44v-.61c0-.14-.04-.28-.04-.43,0-3.91,2.79-5.21,2.81-5.23,3.04-1.16,5.34-2.7,6.91-3.96,1.55-1.23,2.35-2.17,2.35-2.17l.13-.16.15.11.19.15s3.08,3.69,9.12,6.03c.03.03,2.77,1.33,2.77,5.23v1.04l.45-.43c1.64-1.83,3.4-2.23,4.57-2.23.81,0,1.36.2,1.39.2,4.46,1.96,8.28,2.18,9.87,2.18.55,0,.82,0,.82,0h.07l.37.08-.02.16s-.03.28-.03.77c0,1.62.24,5.62,2.21,10.13,0,.04.22.55.22,1.4,0,1.16-.4,2.93-2.21,4.55l-.45.46h.61c.14-.01.32-.01.44-.01,3.9,0,5.21,2.77,5.21,2.81,1.18,3.03,2.69,5.29,3.9,6.81,1.22,1.54,2.14,2.29,2.18,2.34l.17.31-.09.12s-3.81,3.21-6.16,9.26c0,.01-1.31,2.81-5.21,2.81h-1.05l.44.43c1.82,1.63,2.23,3.41,2.23,4.57,0,.85-.22,1.37-.22,1.4-1.94,4.44-2.19,8.25-2.19,9.87,0,.5.02.81.02.81v.06l-.07.36h-.17s-.28-.02-.8-.02c-1.6,0-5.58.23-10.1,2.23-.04,0-.58.17-1.39.17-1.17,0-2.94-.35-4.57-2.2l-.45-.43v1.04c0,3.92-2.74,5.21-2.79,5.23-3.01,1.17-5.28,2.71-6.82,3.91-1.51,1.22-2.29,2.13-2.32,2.16l-.3.19-.13-.13Z"/>
          <path class="cls-5" d="M239.19,91.65c1.13-1.16,4.47-4.29,9.9-6.41,0,0,.05,0,.07-.03.06-.03.16-.1.29-.18.23-.14.54-.42.86-.8.65-.75,1.3-1.91,1.3-3.81v-3.54l2.17,2.19c1.65,1.78,3.23,2.1,4.31,2.1.58,0,.99-.08,1.14-.13l.04-.02c5.1-2.21,9.6-2.52,11.46-2.52h.13v-.34c0-1.85.27-6.18,2.48-11.19,0-.03.04-.11.05-.27.04-.21.1-.53.1-.9,0-1.07-.33-2.65-2.17-4.31l-2.17-2.17h3.53c3.3,0,4.54-1.98,4.79-2.44.02-.03.05-.05.05-.06,2.09-5.31,5.13-8.68,6.44-9.98-1.2-1.12-4.29-4.44-6.44-9.88,0,0,0-.01-.05-.09-.02-.05-.09-.15-.15-.26-.17-.24-.42-.55-.8-.87-.75-.64-1.94-1.28-3.84-1.31-.12,0-.28,0-.45.03h-3.08l2.21-2.21c1.79-1.61,2.12-3.21,2.12-4.3,0-.54-.1-.98-.15-1.12v-.05c-2.26-5.11-2.5-9.58-2.5-11.46v-.1h-.36c-1.89,0-6.18-.29-11.19-2.49,0,0-.13-.01-.28-.07-.22-.03-.55-.07-.91-.07-1.07,0-2.66.32-4.33,2.14l-2.14,2.17v-3.53c0-3.29-1.99-4.54-2.45-4.81h-.05c-5.45-2.17-8.79-5.28-9.92-6.45-1.26,1.28-4.66,4.34-9.96,6.44,0,0-.01,0-.08,0-.06.04-.15.11-.27.19-.23.17-.53.41-.88.79-.62.74-1.27,1.93-1.3,3.83,0,.12.03.28.03.42v3.11l-2.2-2.19c-1.62-1.8-3.21-2.11-4.3-2.11-.57,0-.96.07-1.12.15h-.05c-5.01,2.2-9.3,2.49-11.17,2.49h-.38v.13c0,1.87-.28,6.33-2.51,11.44,0,.04,0,.1-.04.31-.06.18-.13.5-.13.86.02,1.09.35,2.69,2.15,4.33l2.16,2.19h-3.09c-.12-.03-.31-.03-.4-.03-3.29.03-4.56,2.01-4.83,2.43q-.02.05-.02.08c-2.15,5.46-5.27,8.77-6.4,9.9,1.24,1.3,4.31,4.67,6.4,9.98,0,.01,0,.03.02.06.05.06.11.17.18.3.14.24.43.53.79.85.75.63,1.93,1.29,3.83,1.29h3.51l-2.17,2.17c-1.79,1.66-2.12,3.24-2.14,4.31,0,.54.13,1,.17,1.12v.05c2.21,5.01,2.48,9.33,2.48,11.19v.34h.09c1.89,0,6.37.31,11.48,2.52.05,0,.11.04.29.1.21.03.51.07.88.07,1.07-.02,2.68-.34,4.35-2.13l2.15-2.18v3.1c0,.15-.03.27-.03.44.03,3.29,1.99,4.53,2.44,4.79.06.03.08.03.08.03,5.3,2.06,8.7,5.15,9.96,6.41M238.57,93.25s-.17-.23-.6-.65c-.44-.4-1.06-1.01-1.91-1.66-1.69-1.34-4.17-3-7.43-4.28h-.01s-.03,0-.03,0c-.1-.04-3.27-1.6-3.38-6.04-1.79,1.72-3.67,2.12-4.97,2.12-.99,0-1.63-.24-1.7-.25h-.02v-.04c-4.89-2.11-9.15-2.37-10.92-2.37-.52,0-.78.03-.78.03l-.7.05-.13-.66-.09-.32.05-.12s.01-.3.01-.88c0-1.72-.24-5.82-2.35-10.62h-.03c-.01-.08-.24-.73-.24-1.74,0-1.29.38-3.2,2.11-4.95-4.42-.09-5.99-3.27-6.05-3.39l-.02-.03h0c-1.88-4.89-4.66-8.05-5.9-9.34-.42-.4-.68-.61-.68-.61l-.52-.43.37-.57.2-.29.08-.07s.21-.17.65-.6c.4-.37.98-.98,1.62-1.82,1.31-1.62,2.96-4.09,4.19-7.33v-.03l.02-.03c.06-.09,1.63-3.3,6.05-3.4-1.73-1.76-2.11-3.64-2.11-4.94,0-.99.22-1.64.24-1.7h0s.03-.05.03-.05c2.12-4.86,2.37-9.12,2.37-10.86,0-.54-.02-.83-.02-.83l-.07-.66.68-.15.33-.06.13.02s.27.02.87.02c1.72,0,5.8-.27,10.61-2.37h.02v-.02s.72-.26,1.7-.26c1.32-.02,3.2.4,4.97,2.11.11-4.41,3.28-6.01,3.38-6.02h.03s.01-.01.01-.01c4.88-1.92,8.05-4.69,9.34-5.96.42-.41.6-.63.6-.63l.45-.53.57.39.31.17.04.09s.19.22.61.65c.4.38,1.03.95,1.84,1.6,1.63,1.31,4.09,2.93,7.31,4.22h.06c.12.02,3.3,1.62,3.41,6.03,1.76-1.72,3.67-2.11,4.93-2.11.99,0,1.66.24,1.7.26l.02.02h.04c4.8,2.09,8.9,2.37,10.63,2.37.58,0,.85-.02.85-.02l.12-.02,1,.22-.05.66s-.02.29-.02.8c0,1.73.24,6.02,2.38,10.89v.04h0c.02.07.27.72.27,1.71.02,1.3-.4,3.21-2.11,4.94,4.42.11,5.98,3.31,6.04,3.4v.06c1.92,4.89,4.61,7.94,5.83,9.15.42.43.65.6.65.6l-.51.59.51-.59.08.07.55.86-.53.43s-.23.22-.62.61c-.43.43-1.03,1.07-1.69,1.9-1.35,1.68-3.02,4.16-4.27,7.43v.04c-.06.12-1.62,3.3-6.04,3.39,1.71,1.77,2.13,3.66,2.11,4.95,0,1.01-.25,1.67-.27,1.72v.03c-2.11,4.79-2.36,8.9-2.36,10.62,0,.58.02.88.02.88v.1l-.2,1.01-.68-.05s-.26-.03-.8-.03c-1.73,0-6.04.26-10.89,2.37l-.05.04s-.71.25-1.7.25c-1.31,0-3.17-.4-4.93-2.12-.11,4.44-3.3,5.99-3.41,6.04h-.06c-4.83,1.92-7.93,4.63-9.15,5.84-.42.44-.61.63-.61.63l-.06.09-.85.55-.45-.52Z"/>
        </g>
        <g class="cls-1">
          <rect class="cls-5" x="209.09" y="16.82" width="60.18" height="60.15"/>
        </g>
        <path class="cls-3" d="M239.17,56.99c-5.56,0-10.1-4.52-10.1-10.11s4.54-10.08,10.1-10.08,10.12,4.51,10.12,10.08-4.53,10.11-10.12,10.11"/>
        <g class="cls-6">
          <rect class="cls-5" x="231.83" y="39.52" width="14.71" height="14.73"/>
        </g>
        <g>
          <path class="cls-5" d="M109.93,15.94c-7.96,7.91-12.85,18.86-12.85,30.94s4.89,23.04,12.85,30.97c7.93,7.92,18.85,12.82,30.96,12.82s23.05-4.91,30.96-12.82c7.93-7.93,12.82-18.87,12.82-30.97s-4.9-23.02-12.82-30.94c-7.91-7.93-18.86-12.84-30.96-12.84s-23.03,4.91-30.96,12.84M95.55,46.88c0-25.03,20.3-45.32,45.34-45.32s45.34,20.29,45.34,45.32-20.32,45.34-45.34,45.34-45.34-20.27-45.34-45.34"/>
          <path class="cls-5" d="M111.56,17.59c-7.52,7.5-12.13,17.85-12.13,29.29s4.61,21.82,12.13,29.33c7.51,7.5,17.85,12.13,29.31,12.13s21.83-4.63,29.32-12.13c7.54-7.51,12.17-17.88,12.17-29.33s-4.63-21.79-12.17-29.29c-7.49-7.53-17.85-12.16-29.32-12.16s-21.8,4.63-29.31,12.16M98.49,46.88c0-23.38,18.97-42.38,42.37-42.38s42.42,19.01,42.42,42.38-18.97,42.39-42.42,42.39-42.37-18.99-42.37-42.39"/>
          <path class="cls-5" d="M113.38,19.36c-7.09,7.06-11.43,16.77-11.43,27.51s4.35,20.5,11.43,27.52c7.02,7.06,16.76,11.43,27.51,11.43s20.45-4.38,27.51-11.43c7.06-7.02,11.4-16.73,11.4-27.52s-4.34-20.46-11.4-27.51c-7.06-7.04-16.76-11.41-27.51-11.41s-20.49,4.37-27.51,11.41M101.03,46.88c0-21.97,17.84-39.83,39.85-39.83s39.83,17.86,39.83,39.83-17.84,39.84-39.83,39.84-39.85-17.84-39.85-39.84"/>
          <path class="cls-5" d="M114.99,21.01c-6.61,6.64-10.71,15.77-10.71,25.87s4.1,19.27,10.71,25.9c6.63,6.61,15.78,10.7,25.89,10.7s19.25-4.09,25.87-10.7c6.63-6.63,10.73-15.79,10.73-25.9s-4.1-19.24-10.73-25.87c-6.63-6.63-15.76-10.73-25.87-10.73s-19.26,4.1-25.89,10.73M103.7,46.88c0-20.52,16.63-37.19,37.19-37.19s37.21,16.67,37.21,37.19-16.68,37.21-37.21,37.21-37.19-16.68-37.19-37.21"/>
          <path class="cls-5" d="M116.53,22.53c-6.23,6.24-10.1,14.85-10.1,24.35s3.86,18.12,10.1,24.36c6.22,6.25,14.85,10.1,24.34,10.1s18.15-3.85,24.35-10.1c6.27-6.24,10.1-14.84,10.1-24.36s-3.83-18.1-10.1-24.35c-6.21-6.25-14.81-10.1-24.35-10.1s-18.11,3.85-24.34,10.1M106,46.88c0-19.26,15.62-34.89,34.86-34.89s34.88,15.63,34.88,34.89-15.59,34.89-34.88,34.89-34.86-15.62-34.86-34.89"/>
          <path class="cls-5" d="M120.47,26.5c-5.21,5.21-8.44,12.41-8.44,20.38s3.24,15.18,8.44,20.4c5.25,5.21,12.45,8.45,20.42,8.45s15.17-3.23,20.38-8.45c5.25-5.23,8.44-12.43,8.44-20.4s-3.19-15.17-8.44-20.38c-5.21-5.22-12.42-8.45-20.38-8.45s-15.16,3.23-20.42,8.45M111.71,46.88c0-16.07,13.08-29.14,29.18-29.14s29.14,13.07,29.14,29.14-13.04,29.19-29.14,29.19-29.18-13.08-29.18-29.19"/>
          <path class="cls-5" d="M85.11,56.54c-.21-3.38-1.14-6.69-2.83-9.66,1.69-2.94,2.63-6.28,2.83-9.63,1.47,2.88,2.37,6.16,2.37,9.63s-.89,6.78-2.37,9.66M84.64,57.43l-.12.3v.1c-1.79,3-4.31,5.55-7.3,7.37-.07-3.51-.99-7.04-2.79-10.31,3.2-1.91,5.76-4.51,7.55-7.56,1.69,3.1,2.61,6.55,2.66,10.07v.03M81.72,68.38c-1.74,3.02-4.13,5.41-6.89,7.18,1.52-3.02,2.35-6.38,2.39-9.79,2.93-1.72,5.41-4.12,7.26-6.94-.14,3.25-1.03,6.52-2.76,9.55M73.96,76.11l-.27.25s0,.02-.03.06c-3.07,1.71-6.52,2.63-9.99,2.71,1.67-3.05,2.67-6.61,2.72-10.33,3.72-.05,7.25-1.03,10.31-2.72-.07,3.49-.99,6.92-2.7,10t-.05.04M65.97,84.11c-3,1.74-6.28,2.62-9.54,2.77,2.86-1.85,5.25-4.35,6.95-7.27,3.4-.06,6.77-.87,9.8-2.42-1.76,2.75-4.17,5.14-7.2,6.91M55.44,86.92h-.05l-.35.09s-.04.02-.04.03c-3.51-.06-6.97-.98-10.02-2.66,3.02-1.81,5.63-4.36,7.54-7.58,3.24,1.82,6.8,2.74,10.3,2.79-1.83,3-4.37,5.53-7.37,7.34M44.49,89.87c-3.5,0-6.75-.88-9.65-2.37,3.37-.21,6.71-1.14,9.65-2.83,2.96,1.69,6.29,2.62,9.66,2.83-2.91,1.46-6.15,2.37-9.66,2.37M33.53,86.92c-3-1.81-5.56-4.34-7.37-7.34,3.52-.05,7.05-.96,10.3-2.79,1.93,3.22,4.52,5.77,7.52,7.58-3.05,1.68-6.5,2.6-9.98,2.66-.05,0-.48-.12-.48-.12M23.01,84.11c-3.03-1.78-5.43-4.16-7.17-6.91,3,1.54,6.36,2.36,9.76,2.42,1.72,2.92,4.11,5.41,6.93,7.27-3.24-.16-6.51-1.04-9.52-2.77M15.3,76.35l-.28-.25s-.02-.03-.02-.04c-1.75-3.09-2.66-6.51-2.73-10,3.07,1.69,6.58,2.68,10.34,2.72.02,3.72.99,7.28,2.72,10.33-3.52-.08-6.95-1-10.01-2.71t-.02-.06M7.26,68.38c-1.73-3.03-2.61-6.3-2.77-9.55,1.85,2.82,4.34,5.23,7.27,6.94.03,3.41.84,6.73,2.41,9.79-2.76-1.78-5.14-4.16-6.91-7.18M4.37,57.43s0-.02-.03-.03c.05-3.51.96-6.95,2.66-10.02,1.81,3,4.36,5.6,7.59,7.51-1.84,3.27-2.75,6.81-2.8,10.31-3.01-1.82-5.52-4.35-7.32-7.34l-.1-.43ZM1.53,46.88c0-3.47.87-6.75,2.36-9.63.17,3.35,1.14,6.7,2.81,9.63-1.67,2.98-2.64,6.28-2.81,9.67-1.48-2.89-2.36-6.17-2.36-9.67M4.37,36.36l.1-.43c1.81-3.02,4.31-5.56,7.32-7.38.05,3.51.96,7.05,2.8,10.32-3.23,1.91-5.79,4.49-7.59,7.52-1.7-3.06-2.61-6.52-2.66-10.03t.03-.02M7.26,25.39c1.77-2.99,4.16-5.4,6.91-7.17-1.57,3-2.38,6.37-2.41,9.75-2.94,1.76-5.42,4.14-7.27,6.98.16-3.25,1.04-6.52,2.77-9.56M15.01,17.71l.28-.3s.02-.04.02-.04c3.06-1.71,6.5-2.64,10.01-2.72-1.72,3.09-2.7,6.57-2.72,10.32-3.76.08-7.28,1.05-10.34,2.76.07-3.51.98-6.95,2.73-10.01,0,0,0,0,.02,0M23.01,9.67c3.01-1.73,6.28-2.63,9.52-2.78-2.82,1.86-5.21,4.35-6.93,7.29-3.38,0-6.76.85-9.76,2.38,1.74-2.76,4.14-5.15,7.17-6.89M33.58,6.86l.35-.09s.03,0,.08-.04c3.48.04,6.93.96,9.98,2.66-3,1.8-5.58,4.38-7.52,7.59-3.25-1.83-6.81-2.74-10.3-2.8,1.81-3,4.36-5.52,7.41-7.32M44.49,3.93c3.51,0,6.75.83,9.66,2.34-3.37.18-6.69,1.13-9.66,2.82-2.95-1.69-6.28-2.64-9.65-2.82,2.9-1.51,6.16-2.34,9.65-2.34M55.04,6.77l.4.09c3,1.8,5.54,4.32,7.37,7.32-3.5.06-7.06.97-10.3,2.8-1.91-3.21-4.52-5.79-7.54-7.59,3.06-1.69,6.52-2.61,10.02-2.66,0,.04.03.04.04.04M65.97,9.67c3.03,1.75,5.44,4.14,7.2,6.89-3.02-1.53-6.39-2.38-9.8-2.38-1.7-2.94-4.09-5.43-6.95-7.29,3.26.15,6.54,1.05,9.54,2.78M73.7,17.41l.27.27s.02.04.05.04c1.71,3.04,2.63,6.49,2.7,10.01-3.06-1.71-6.56-2.67-10.31-2.76-.05-3.75-1.05-7.23-2.74-10.32,3.5.08,6.93,1.02,10.02,2.72,0,0,.03,0,.03.04M81.72,25.39c1.73,3.03,2.62,6.31,2.76,9.56-1.85-2.84-4.33-5.22-7.26-6.98-.04-3.38-.87-6.75-2.39-9.75,2.76,1.77,5.15,4.18,6.89,7.17M73.74,54.73c-2.11,1.17-4.35,1.98-6.61,2.37.13.16.21.31.28.45,2.24-.45,4.48-1.24,6.56-2.41,1.85,3.28,2.75,6.84,2.79,10.34-3.05,1.74-6.6,2.75-10.35,2.81-.65-.02-.43-.18-.48.27-.05,3.76-1.08,7.51-2.8,10.55-3.56-.03-7.07-.91-10.35-2.76,1.18-2.1,1.95-4.29,2.37-6.54-.14-.12-.27-.2-.43-.29-.41,2.25-1.18,4.49-2.37,6.59-1.1-.66-2.09-1.36-3.01-2.15-.17.08-.32.18-.48.25.99.88,2.07,1.63,3.23,2.32-1.93,3.25-4.58,5.8-7.6,7.58-3.03-1.78-5.67-4.33-7.61-7.58,1.19-.68,2.28-1.43,3.24-2.32-.15-.07-.31-.17-.48-.25-.91.79-1.91,1.49-2.97,2.15-1.19-2.1-1.99-4.33-2.4-6.59-.14.08-.31.17-.44.29.44,2.24,1.23,4.44,2.37,6.54-3.23,1.85-6.78,2.73-10.31,2.76-1.71-3.04-2.81-6.83-2.85-10.61-.2-.05-.12-.05-.2-.22-3.78-.05-7.53-1.07-10.57-2.81.01-3.5.91-7.06,2.75-10.34,2.08,1.17,4.33,1.96,6.53,2.41.13-.13.21-.29.3-.45-2.25-.4-4.48-1.2-6.58-2.39.65-1.07,1.36-2.07,2.12-2.99-.07-.15-.14-.32-.22-.45-.86.98-1.64,2.05-2.33,3.21-3.22-1.92-5.77-4.54-7.58-7.61,1.81-3.03,4.35-5.68,7.58-7.61.69,1.19,1.47,2.25,2.33,3.25.08-.16.15-.3.22-.46-.76-.93-1.47-1.94-2.12-3,2.1-1.2,4.33-1.98,6.58-2.41-.09-.16-.2-.28-.3-.43-2.2.43-4.45,1.24-6.53,2.4-1.83-3.26-2.73-6.83-2.75-10.32,3.05-1.77,6.8-2.8,10.57-2.86.27.09.86-.27.24-.27.05-3.75,1.1-7.47,2.81-10.53,3.53.03,7.08.89,10.31,2.76-1.15,2.11-1.93,4.29-2.37,6.56.12.07.3.17.44.27.42-2.25,1.21-4.48,2.4-6.58,1.06.65,2.05,1.36,2.98,2.13.15-.06.31-.15.46-.25-.96-.85-2.05-1.61-3.24-2.31,1.94-3.23,4.58-5.78,7.61-7.55,3.02,1.77,5.67,4.32,7.6,7.55-1.16.71-2.24,1.47-3.23,2.31.16.1.3.21.48.25.91-.77,1.91-1.48,3.01-2.13,1.19,2.1,1.97,4.33,2.37,6.58.16-.1.29-.2.43-.27-.43-2.27-1.19-4.45-2.37-6.56,3.28-1.87,6.82-2.73,10.35-2.76,1.72,3.06,2.75,6.78,2.8,10.53.33.2.29,0,.29,0,0,0-.09.15-.04.28,3.74.05,7.53,1.09,10.58,2.86-.04,3.49-.93,7.06-2.79,10.32-2.08-1.16-4.32-1.97-6.56-2.4-.07.14-.15.27-.28.43,2.26.43,4.5,1.21,6.61,2.41-.65,1.06-1.38,2.07-2.16,3,.07.16.14.3.25.46.84-1,1.64-2.06,2.32-3.25,3.24,1.93,5.77,4.58,7.57,7.61-1.8,3.07-4.33,5.69-7.57,7.61-.68-1.16-1.48-2.23-2.32-3.21-.1.13-.17.3-.25.45.78.92,1.51,1.92,2.16,3.01M84.52,35.98l.12.38v.02c-.06,3.51-.97,6.97-2.66,10.03-1.8-3.03-4.35-5.61-7.55-7.52,1.81-3.28,2.72-6.82,2.79-10.32,2.99,1.81,5.49,4.34,7.3,7.38v.05ZM86.05,35.75c-.02-3.81-.99-7.62-3.02-11.12-2.01-3.51-4.87-6.25-8.09-8.16-1.93-3.26-4.68-6.1-8.16-8.14-3.54-2.03-7.35-2.97-11.12-3-3.31-1.88-7.12-2.93-11.16-2.93s-7.85,1.05-11.13,2.93c-3.8.03-7.58.97-11.12,3-3.51,2.05-6.25,4.88-8.16,8.14-3.27,1.91-6.1,4.66-8.14,8.16-2.04,3.53-2.97,7.35-3.02,11.12-1.83,3.28-2.92,7.08-2.92,11.13s1.09,7.86,2.92,11.14c.05,3.79.98,7.61,3.02,11.11,2.04,3.5,4.87,6.26,8.14,8.18,1.9,3.25,4.65,6.1,8.16,8.13,3.54,2.03,7.32,2.97,11.12,3.01,3.28,1.84,7.08,2.93,11.13,2.93s7.85-1.09,11.16-2.93c3.77-.04,7.58-.99,11.12-3.01,3.49-2.02,6.23-4.88,8.16-8.13,3.22-1.92,6.08-4.68,8.09-8.18,2.03-3.52,3-7.32,3.02-11.11,1.86-3.29,2.97-7.1,2.97-11.14s-1.1-7.85-2.97-11.13"/>
        </g>
        <g class="cls-9">
          <rect class="cls-5" x="13.77" y="16.17" width="61.43" height="61.44"/>
        </g>
        <path class="cls-3" d="M44.49,56.89c-5.51,0-10.01-4.47-10.01-10.01s4.5-10,10.01-10,10.01,4.5,10.01,10-4.48,10.01-10.01,10.01"/>
        <g class="cls-8">
          <rect class="cls-5" x="37.28" y="39.68" width="14.44" height="14.43"/>
        </g>
        <g class="cls-7">
          <rect class="cls-5" x="109.7" y="15.7" width="62.34" height="62.37"/>
        </g>
        <path class="cls-3" d="M140.86,56.89c-5.51,0-9.98-4.47-9.98-10.01s4.47-10,9.98-10,10.04,4.5,10.04,10-4.5,10.01-10.04,10.01"/>
        <g class="cls-10">
          <rect class="cls-5" x="133.67" y="39.68" width="14.44" height="14.43"/>
        </g>
        <g>
          <path class="cls-5" d="M214.16,145.23c2.63-6.65,5.74-14.54,5.74-14.54h.09l6.32,14.54h-12.16ZM235.44,155.21c-.15,0-.55-.23-.67-.56-.03-.09-.08-.19-.12-.29-1.62-3.59-13.31-29.72-13.31-29.72h-.08c-8.12,20.34-11.01,27.39-11.91,29.58-.07.15-.15.31-.24.44-.12.33-.48.56-.64.56h-.29v.1h2.94v-.1h-.15c-.34,0-.56-.35-.48-.59.02-.1.05-.21.1-.35,0-.02,1.47-3.7,3.23-8.17h12.9l3.51,8.06c.08.16.12.31.22.49.12.35-.29.57-.44.57h-.3v.1h6v-.1h-.27Z"/>
          <path class="cls-5" d="M151.48,145.23c2.67-6.65,5.79-14.54,5.79-14.54h.07l6.35,14.54h-12.21ZM172.76,155.21c-.15,0-.51-.23-.67-.56-.03-.09-.08-.19-.13-.29-1.57-3.59-13.29-29.72-13.29-29.72h-.09c-8.12,20.34-11.01,27.39-11.92,29.58-.07.15-.12.31-.22.44-.12.33-.5.56-.65.56h-.29v.1h2.93v-.1h-.11c-.33,0-.57-.35-.51-.59.02-.1.07-.21.11-.35.01-.02,1.47-3.7,3.24-8.17h12.88l3.51,8.06c.11.16.15.31.22.49.15.35-.3.57-.45.57h-.29v.1h6.04v-.1h-.31Z"/>
          <path class="cls-5" d="M56.32,145.23c2.65-6.65,5.78-14.54,5.78-14.54h.04l6.35,14.54h-12.18ZM77.59,155.21c-.15,0-.52-.23-.67-.56-.06-.09-.08-.19-.16-.29-1.59-3.59-13.26-29.72-13.26-29.72h-.07c-8.14,20.34-11.04,27.39-11.94,29.58-.05.15-.15.31-.21.44-.14.33-.51.56-.66.56h-.3v.1h2.93v-.1h-.12c-.35,0-.56-.35-.51-.59.04-.1.05-.21.1-.35.04-.02,1.49-3.7,3.27-8.17h12.88l3.51,8.06c.08.16.15.31.21.49.14.35-.29.57-.43.57h-.27v.1h5.97v-.1h-.27Z"/>
          <path class="cls-5" d="M111.14,127.57h0v-1.29c0-.35.32-.56.46-.56h.29v-.1h-2.47v.1h.3c.14,0,.44.2.44.56v23.7l-23.7-24.7h-.11c0,16.32.04,28.96.04,28.98v.39c0,.34-.32.56-.47.56h-.27v.1h2.49v-.1h-.29c-.15,0-.45-.22-.45-.56v-22.94l23.74,24.75v-28.89Z"/>
          <path class="cls-5" d="M143.49,124.94v.23c0,.16-.2.47-.55.47h-21.27c-.37,0-.56-.31-.56-.47v-.23h-.09v2.3h.09v-.29c0-.14.2-.45.56-.45h8.57v28.14c0,.35-.29.57-.43.57h-.28v.1h5.53v-.1h-.31c-.13,0-.42-.22-.42-.57v-28.14h8.6c.35,0,.55.32.55.45v.29h.1v-2.3h-.1Z"/>
          <path class="cls-5" d="M185.22,139.97v-13.47h2.43c4.78,0,7.41,2.5,7.41,6.71s-2.63,6.76-7.73,6.76h-2.12ZM203.39,155.21c-.53,0-1.37-.5-1.71-.88-5.04-5.42-12-13.59-12-13.59h.36c.96,0,1.91-.12,2.87-.29,3.76-.67,6.7-3.14,6.7-7.23,0-4.83-4.3-7.59-9.87-7.59h-9.34v.1h.31c.15,0,.44.2.44.56v28.35c0,.35-.28.57-.44.57h-.31v.1h5.56v-.1h-.3c-.13,0-.46-.22-.46-.57v-13.44l11.89,14.1h6.51v-.1h-.22Z"/>
        </g>
      </g>
      <g>
        <path class="cls-4" d="M98.9,190.78l2.54,2.21c.94.82,1.18,1.92,1.18,3.04,0,2.68-2.77,3.95-3.71,6.2-.27.63-.46,1.34-.4,2.03.02.26.18,1.36.5,1.44,2.39.56,4.35-1.12,3.58-3.8-.18-.73-.31-1.03-.65-1.48h.15l2.54,2.24c.54.55.82,1.01.82,1.76.14,2.15-1.62,3.79-3.53,3.79-.86,0-1.57-.3-2.09-.75l-2.92-2.54c-.86-.75-1.06-1.64-1.06-2.76,0-2.53,2.05-3.99,2.98-6.17.38-.89.52-1.73.51-2.7,0-.77,0-1.78-.55-2.39l.09-.12Z"/>
        <path class="cls-4" d="M105.17,210.23s2.82,2.41,3.05,2.61l-.15.04c-.82-.68-1.81-1-2.99-1.05-1.08-.05-2.09.24-3.09.6-.45.17-.9.34-1.34.52-.66.27-1.4.44-2.11.36-1.09-.13-2.11-.92-2.96-1.69l-2.48-2.14s.14-.04.15-.04c1.45.82,2.81,1.22,4.58.97.69-.1,3.24-1.25,3.99-1.34.56-.07.97-.05,1.41.07.89.25,1.27.58,1.93,1.07"/>
        <text class="cls-11" transform="translate(110.58 206.7)"><tspan x="0" y="0">Max Group</tspan></text>
      </g>
    </g>
  </g>
  <g>
    <path class="cls-5" d="M372.62,123.12h-23.95v-3.45c2.02,0,3.5-.14,4.42-.43.92-.29,1.39-.97,1.39-2.04,0-.75-.15-1.51-.45-2.29l-2.4-6h-16.49l-1.24,3.3c-.7,1.85-1.05,3.19-1.05,4.01,0,1.5.58,2.45,1.74,2.85,1.16.4,2.52.6,4.07.6v3.45h-17.5v-3.45c1.4,0,2.59-.26,3.56-.79s1.9-1.52,2.79-2.98c.89-1.46,1.84-3.53,2.87-6.2l14.66-38.38h3.56l15.48,39.58c1.12,2.8,1.95,4.69,2.47,5.68.52.99,1.25,1.75,2.17,2.29.92.54,2.22.81,3.9.81v3.45ZM350.28,105.24l-7.01-17.73-6.67,17.73h13.68Z"/>
    <path class="cls-5" d="M429.33,103.07c-1.45.15-2.54.38-3.28.69-.74.31-1.24.85-1.52,1.61-.28.76-.41,1.94-.41,3.54v11.92c-3.62,0-7.55.47-11.77,1.42-3.05.67-5.34,1.14-6.86,1.41-1.52.26-3.32.39-5.4.39-5.5,0-10.21-1.29-14.13-3.86-3.92-2.57-6.87-5.88-8.83-9.93-1.96-4.05-2.94-8.21-2.94-12.48,0-4.9,1.16-9.36,3.49-13.4,2.32-4.03,5.47-7.21,9.45-9.52,3.97-2.31,8.32-3.47,13.04-3.47,5.75,0,10.98,1.99,15.7,5.96.57-1.07,1.04-2.55,1.39-4.42h3.64l.37,16.64h-3.45c-.52-2.52-1.51-4.83-2.96-6.93-1.45-2.1-3.26-3.76-5.42-4.99-2.16-1.22-4.54-1.84-7.14-1.84-1.9,0-3.76.33-5.58.99-1.82.66-3.53,1.81-5.12,3.45-1.59,1.64-2.86,3.87-3.82,6.69-.96,2.82-1.44,6.31-1.44,10.46,0,3.55.37,6.96,1.12,10.23.75,3.27,2.27,6.08,4.57,8.43,2.3,2.35,5.55,3.52,9.75,3.52,3.3,0,5.8-.52,7.5-1.56,1.7-1.04,2.8-2.31,3.32-3.8.51-1.5.77-3.17.77-5.02,0-1.75-.13-3.02-.39-3.82-.26-.8-.87-1.39-1.84-1.76-.96-.37-2.44-.56-4.44-.56v-3.45h22.64v3.45Z"/>
    <path class="cls-5" d="M477.15,106.41l-.41,16.72h-45.28v-3.45c3.12,0,5.13-.45,6.03-1.35.9-.9,1.35-2.45,1.35-4.65v-31.93c0-1.45-.14-2.58-.43-3.39-.29-.81-.96-1.45-2.02-1.91-1.06-.46-2.71-.69-4.93-.69v-3.45h42.17l.67,13.19h-3.45c-.77-2.92-1.67-5.02-2.68-6.28-1.01-1.26-2.15-2.04-3.41-2.32-1.26-.29-3.15-.43-5.68-.43h-9.52v17.95h5.17c1.77,0,3.1-.16,3.97-.47.87-.31,1.49-.91,1.84-1.78.35-.87.59-2.25.71-4.12h3.6v16.9h-3.45c-.1-1.87-.35-3.25-.75-4.14-.4-.89-1.03-1.48-1.89-1.78-.86-.3-2.18-.45-3.95-.45h-5.25v11.96c0,2,.05,3.46.15,4.39.1.92.37,1.69.81,2.31.44.61,1.15,1.06,2.14,1.33.99.28,2.39.41,4.22.41h4.09c1.72,0,3.37-.22,4.93-.66,1.56-.44,3.09-1.56,4.59-3.37,1.5-1.81,2.55-4.65,3.15-8.53h3.52Z"/>
    <path class="cls-5" d="M513.77,117.5h1.39c-.23,4.27-2.32,6.41-6.3,6.41-1.7,0-3.04-.45-4.03-1.35-.99-.9-1.63-2.24-1.93-4.01-2.5,1.77-4.78,3.11-6.84,4.01-2.06.9-3.9,1.35-5.53,1.35-2.07,0-3.86-.6-5.36-1.8-1.5-1.2-2.25-2.79-2.25-4.76,0-2.57,1.26-4.82,3.77-6.75,2.51-1.92,5.98-3.8,10.4-5.62l5.81-2.36v-1.5c0-2.12-.14-3.66-.41-4.61-.28-.95-.99-1.8-2.14-2.55-1.15-.75-2.66-1.12-4.54-1.12-3.75,0-5.83,1.25-6.26,3.75-.4,2.55-1.45,3.82-3.15,3.82-1.52,0-2.29-.72-2.29-2.17s1.01-2.95,3.04-4.59c2.02-1.64,5.17-2.46,9.45-2.46,3.17,0,5.63.5,7.38,1.5,1.75,1,2.9,2.14,3.47,3.41.56,1.27.84,3.22.84,5.85v12.41c0,2.9.15,4.76.45,5.58s.95,1.24,1.95,1.24c1.65,0,2.67-1.22,3.07-3.67ZM502.9,104.38l-4.09,1.65c-6.45,2.62-9.67,5.92-9.67,9.89,0,1.57.41,2.84,1.24,3.8.82.96,1.9,1.44,3.22,1.44,1.17,0,2.54-.39,4.09-1.16,1.55-.77,3.29-1.94,5.21-3.49v-12.14Z"/>
    <path class="cls-5" d="M519.06,124.1v-10.08h1.46c1.7,5.82,4.73,8.73,9.11,8.73,1.9,0,3.32-.57,4.25-1.72.94-1.15,1.41-2.41,1.41-3.79,0-1.6-.5-2.91-1.5-3.94-1.03-1.02-3.01-2.26-5.96-3.71-3.1-1.52-5.32-3.02-6.67-4.5-1.35-1.45-2.02-3.24-2.02-5.36s.72-3.95,2.17-5.79c1.45-1.84,3.49-2.75,6.11-2.75s4.89,1.09,6.63,3.26c.37-.37.86-1.29,1.46-2.74h1.39v9.48h-1.39c-.5-2.27-1.47-4.23-2.9-5.87-1.44-1.64-3.13-2.46-5.08-2.46-1.5,0-2.71.46-3.64,1.39-.92.92-1.39,2-1.39,3.22,0,1.35.51,2.51,1.54,3.49,1,1,2.91,2.14,5.73,3.41,4.25,1.92,6.85,3.8,7.8,5.62.95,1.85,1.42,3.62,1.42,5.32,0,2.67-.88,4.85-2.64,6.52-1.76,1.67-3.98,2.51-6.65,2.51-2.82,0-5.33-1.16-7.53-3.49-.67.75-1.22,1.82-1.65,3.22h-1.46Z"/>
    <path class="cls-5" d="M561.45,117.31l7.12-17.05c1.02-2.5,1.54-3.89,1.54-4.16,0-1.25-1.39-1.9-4.16-1.95v-1.72h10.79v1.72c-1.67.08-2.9.52-3.67,1.33-.77.81-1.74,2.6-2.89,5.38l-13.68,33.02c-1.3,3.15-2.45,5.29-3.45,6.43-1,1.14-2.1,1.71-3.3,1.71-1.62,0-2.44-.74-2.44-2.21,0-1.7,1.3-3.14,3.9-4.31,1.52-.67,2.54-1.25,3.05-1.72.51-.47,1.02-1.34,1.52-2.59l2.92-7.31-11.54-24.74c-1.03-2.17-1.87-3.55-2.55-4.12-.67-.57-1.82-.86-3.45-.86v-1.72h14.09v1.72c-2.47.08-3.71.59-3.71,1.54,0,.37.49,1.6,1.46,3.67l8.43,17.95Z"/>
  </g>
</svg>
