<?xml version="1.0" encoding="UTF-8"?>
<svg id="Layer_1" data-name="Layer 1" xmlns="http://www.w3.org/2000/svg" xmlns:xlink="http://www.w3.org/1999/xlink" version="1.1" viewBox="0 0 576.74 213.34">
  <defs>
    <style>
      .cls-1 {
        fill: #f89c25;
      }

      .cls-1, .cls-2, .cls-3, .cls-4, .cls-5, .cls-6, .cls-7, .cls-8, .cls-9, .cls-10, .cls-11, .cls-12, .cls-13, .cls-14, .cls-15 {
        stroke-width: 0px;
      }

      .cls-2 {
        fill: #cf2238;
      }

      .cls-16 {
        clip-path: url(#clippath);
      }

      .cls-3 {
        fill: none;
      }

      .cls-4 {
        fill: url(#radial-gradient);
      }

      .cls-17 {
        font-family: TimesNewRomanPS-BoldMT, 'Times New Roman';
        font-size: 16.48px;
        font-weight: 700;
      }

      .cls-17, .cls-12 {
        fill: #003974;
      }

      .cls-5 {
        fill: #ef6f23;
      }

      .cls-18 {
        clip-path: url(#clippath-1);
      }

      .cls-19 {
        clip-path: url(#clippath-4);
      }

      .cls-20 {
        clip-path: url(#clippath-3);
      }

      .cls-21 {
        clip-path: url(#clippath-2);
      }

      .cls-22 {
        clip-path: url(#clippath-5);
      }

      .cls-6 {
        fill: url(#radial-gradient-2);
      }

      .cls-7 {
        fill: url(#radial-gradient-3);
      }

      .cls-8 {
        fill: url(#radial-gradient-4);
      }

      .cls-9 {
        fill: url(#radial-gradient-6);
      }

      .cls-10 {
        fill: url(#radial-gradient-5);
      }

      .cls-11 {
        fill: #f37920;
      }

      .cls-11, .cls-12 {
        fill-rule: evenodd;
      }

      .cls-13 {
        fill: #fff;
      }

      .cls-14 {
        fill: #d12238;
      }

      .cls-15 {
        fill: #610631;
      }
    </style>
    <clipPath id="clippath">
      <path class="cls-3" d="M233.15,21.33s-2.1.97-1.95,3.93v.82l-.53-.58c-2.03-2.21-4.16-1.43-4.16-1.43-4.32,1.9-7.84,1.59-7.84,1.59l-.12.03s.29,3.62-1.61,7.92c0,0-.77,2.16,1.41,4.18l.58.55h-.8c-2.96-.18-3.93,1.93-3.93,1.93-1.72,4.36-4.42,6.62-4.42,6.62l-.07.13s2.77,2.35,4.49,6.71c0,0,.93,2.1,3.93,1.96h.8l-.58.54c-2.18,2.02-1.41,4.16-1.41,4.16,1.9,4.31,1.59,7.79,1.59,7.79v.15s3.64-.31,7.97,1.59c0,0,2.12.78,4.16-1.42l.53-.56v.8c-.14,2.97,1.95,3.94,1.95,3.94,4.38,1.71,6.72,4.47,6.72,4.47l.13-.05s2.24-2.7,6.63-4.41c0,0,2.09-.97,1.92-3.94v-.8l.57.56c2.02,2.2,4.15,1.42,4.15,1.42,4.33-1.9,7.93-1.59,7.93-1.59l.03-.15s-.29-3.48,1.56-7.79c0,0,.81-2.14-1.42-4.16l-.53-.54h.79c2.98.14,3.94-1.96,3.94-1.96,1.71-4.36,4.48-6.71,4.48-6.71l-.09-.13s-2.67-2.26-4.39-6.62c0,0-.97-2.11-3.94-1.93h-.79l.53-.55c2.24-2.02,1.42-4.18,1.42-4.18-1.85-4.3-1.59-7.92-1.59-7.92l-.15-.03s-3.46.31-7.78-1.59c0,0-2.14-.78-4.15,1.43l-.57.58v-.82c.17-2.97-1.92-3.93-1.92-3.93-4.39-1.72-6.63-4.4-6.63-4.4l-.13-.08s-2.34,2.76-6.72,4.48"/>
    </clipPath>
    <radialGradient id="radial-gradient" cx="-16.4" cy="493.36" fx="-16.4" fy="493.36" r=".5" gradientTransform="translate(1228.12 -29682.5) scale(60.26)" gradientUnits="userSpaceOnUse">
      <stop offset="0" stop-color="#f9a531"/>
      <stop offset="1" stop-color="#ec4934"/>
    </radialGradient>
    <clipPath id="clippath-1">
      <path class="cls-3" d="M232.51,47c0,4.09,3.3,7.39,7.36,7.39s7.39-3.3,7.39-7.39-3.31-7.37-7.39-7.37-7.36,3.32-7.36,7.37"/>
    </clipPath>
    <radialGradient id="radial-gradient-2" cx="-39.21" cy="386.81" fx="-39.21" fy="386.81" r=".5" gradientTransform="translate(817.96 -5656.43) scale(14.74)" gradientUnits="userSpaceOnUse">
      <stop offset="0" stop-color="#ec4934"/>
      <stop offset="1" stop-color="#f9a531"/>
    </radialGradient>
    <clipPath id="clippath-2">
      <path class="cls-3" d="M37.8,20.8s-2.09.98-1.96,4.02v.82l-.57-.6c-2.04-2.21-4.24-1.43-4.24-1.43-4.4,1.95-7.94,1.61-7.94,1.61l-.15.03s.31,3.68-1.64,8.08c0,0-.79,2.22,1.43,4.25l.58.58h-.79c-3.04-.13-4.04,1.98-4.04,1.98-1.74,4.48-4.48,6.77-4.48,6.77l-.09.13s2.83,2.39,4.58,6.87c0,0,1.01,2.12,4.04,1.97h.79l-.58.56c-2.22,2.05-1.43,4.25-1.43,4.25,1.94,4.39,1.6,7.95,1.6,7.95l.04.13s3.7-.28,8.09,1.64c0,0,2.2.81,4.24-1.44l.57-.57v.83c-.13,3.03,1.96,3.99,1.96,3.99,4.49,1.75,6.9,4.59,6.9,4.59l.12-.1s2.3-2.75,6.77-4.49c0,0,2.11-.97,1.97-3.99v-.83l.55.57c2.06,2.25,4.26,1.44,4.26,1.44,4.4-1.92,8.07-1.64,8.07-1.64l.03-.13s-.29-3.56,1.63-7.95c0,0,.8-2.21-1.44-4.25l-.58-.56h.82c3.01.15,4-1.97,4-1.97,1.74-4.47,4.58-6.87,4.58-6.87l-.1-.13s-2.73-2.29-4.48-6.77c0,0-1-2.11-4-1.98h-.82l.58-.58c2.24-2.02,1.44-4.25,1.44-4.25-1.93-4.4-1.63-8.08-1.63-8.08l-.13-.03s-3.57.34-7.97-1.61c0,0-2.19-.78-4.26,1.43l-.55.6v-.82c.14-3.03-1.97-4.02-1.97-4.02-4.47-1.75-6.77-4.49-6.77-4.49l-.12-.1s-2.41,2.84-6.9,4.59"/>
    </clipPath>
    <radialGradient id="radial-gradient-3" cx="-13.09" cy="494.08" fx="-13.09" fy="494.08" r=".5" gradientTransform="translate(849.89 -30356.56) scale(61.53)" gradientUnits="userSpaceOnUse">
      <stop offset="0" stop-color="#f37b21"/>
      <stop offset=".18" stop-color="#f48922"/>
      <stop offset=".72" stop-color="#f9b027"/>
      <stop offset="1" stop-color="#fbc029"/>
    </radialGradient>
    <clipPath id="clippath-3">
      <path class="cls-3" d="M37.48,47c0,4.01,3.22,7.24,7.22,7.24s7.25-3.23,7.25-7.24-3.23-7.22-7.25-7.22-7.22,3.25-7.22,7.22"/>
    </clipPath>
    <radialGradient id="radial-gradient-4" cx="-26.33" cy="383.94" fx="-26.33" fy="383.94" r=".5" gradientTransform="translate(425.44 -5503.73) scale(14.46)" xlink:href="#radial-gradient-3"/>
    <clipPath id="clippath-4">
      <path class="cls-3" d="M134.35,20.39s-2.18,1.01-2.01,4.07v.83l-.59-.58c-2.06-2.29-4.31-1.47-4.31-1.47-4.46,1.96-8.07,1.64-8.07,1.64l-.14.02s.29,3.75-1.66,8.2c0,0-.84,2.28,1.46,4.33l.59.59h-.82c-3.08-.16-4.08,2.01-4.08,2.01-1.8,4.53-4.57,6.87-4.57,6.87l-.08.13s2.86,2.42,4.65,6.96c0,0,1,2.15,4.08,2h.82l-.59.59c-2.29,2.06-1.46,4.3-1.46,4.3,1.95,4.46,1.62,8.07,1.62,8.07l.04.15s3.75-.31,8.21,1.67c0,0,2.24.8,4.31-1.5l.59-.58v.82c-.17,3.09,2.01,4.11,2.01,4.11,4.52,1.78,6.97,4.63,6.97,4.63l.15-.08s2.3-2.77,6.84-4.55c0,0,2.17-1.02,2.02-4.11v-.82l.59.58c2.07,2.29,4.31,1.5,4.31,1.5,4.46-1.98,8.19-1.67,8.19-1.67l.03-.15s-.3-3.61,1.68-8.07c0,0,.78-2.24-1.51-4.3l-.57-.59h.83c3.07.15,4.08-2,4.08-2,1.76-4.55,4.62-6.96,4.62-6.96l-.05-.13s-2.8-2.34-4.56-6.87c0,0-1.01-2.17-4.08-2.01h-.83l.57-.59c2.29-2.05,1.51-4.33,1.51-4.33-1.98-4.45-1.68-8.2-1.68-8.2l-.15-.02s-3.61.33-8.07-1.64c0,0-2.24-.82-4.31,1.47l-.59.58v-.83c.15-3.07-2.02-4.07-2.02-4.07-4.54-1.77-6.84-4.55-6.84-4.55l-.15-.11s-2.44,2.88-6.97,4.66"/>
    </clipPath>
    <radialGradient id="radial-gradient-5" cx="-14.58" cy="494.56" fx="-14.58" fy="494.56" r=".5" gradientTransform="translate(1051.86 -30840.56) scale(62.45)" gradientUnits="userSpaceOnUse">
      <stop offset="0" stop-color="#f37b32"/>
      <stop offset=".4" stop-color="#df5641"/>
      <stop offset=".78" stop-color="#d13a4d"/>
      <stop offset="1" stop-color="#cc3052"/>
    </radialGradient>
    <clipPath id="clippath-5">
      <path class="cls-3" d="M134.11,47c0,4.01,3.22,7.24,7.21,7.24s7.27-3.23,7.27-7.24-3.27-7.22-7.27-7.22-7.21,3.25-7.21,7.22"/>
    </clipPath>
    <radialGradient id="radial-gradient-6" cx="-33.05" cy="383.96" fx="-33.05" fy="383.96" r=".5" gradientTransform="translate(619.24 -5504.89) scale(14.46)" gradientUnits="userSpaceOnUse">
      <stop offset="0" stop-color="#c32f4f"/>
      <stop offset=".22" stop-color="#c9394a"/>
      <stop offset=".61" stop-color="#dc563f"/>
      <stop offset="1" stop-color="#f37932"/>
    </radialGradient>
  </defs>
  <g>
    <g>
      <g>
        <path class="cls-5" d="M239.76,14.34l.1-.17-.1.17ZM239.89,79.59c.35-.39,2.76-3.07,7.25-4.81,0,0,.5-.23.98-.81.51-.61.99-1.53.99-2.97v-1.67l.96.94c1.24,1.38,2.49,1.66,3.34,1.66.58,0,.97-.13.97-.13,3.62-1.6,6.77-1.78,8.07-1.78h.48c0-.11-.04-.31-.04-.62,0-1.3.2-4.34,1.78-7.89,0,0,.12-.36.12-.97,0-.84-.28-2.1-1.64-3.33l-.93-.93h1.65c1.44,0,2.4-.5,2.97-1.01.59-.49.8-.99.8-.98,1.65-4.21,4.19-6.74,4.82-7.31-.41-.33-3.07-2.76-4.82-7.21,0,0-.21-.49-.8-1.01-.57-.49-1.53-.99-2.97-.99h-1.65l.96-.96c1.34-1.21,1.61-2.5,1.61-3.35,0-.58-.12-.95-.12-.95-1.6-3.61-1.78-6.78-1.81-8.09,0-.2.02-.34.02-.44h-.63c-1.27,0-4.32-.19-7.88-1.75,0,0-.38-.14-.97-.14-.85,0-2.1.26-3.34,1.63l-.96.95v-1.67c0-1.42-.48-2.36-.99-2.96-.49-.58-.98-.83-.98-.83-4.71-1.82-7.14-4.67-7.25-4.78-.55.58-3.03,3.13-7.27,4.78,0,0-.5.25-1.01.83-.49.6-1,1.54-1,2.96,0,.13.03.22.03.35v1.32l-.95-.95c-1.25-1.38-2.52-1.63-3.34-1.63-.62,0-.99.14-.97.12-3.55,1.57-6.6,1.77-7.89,1.77h-.62v.44c0,1.3-.19,4.48-1.77,8.08,0,0-.13.37-.13.96,0,.85.25,2.14,1.65,3.35l.92.96h-1.64c-1.48,0-2.4.49-2.99.99-.59.51-.81,1.01-.8,1-1.83,4.66-4.67,7.12-4.8,7.22.6.57,3.13,3.07,4.79,7.3,0,0,.22.5.81.99.59.51,1.51,1.01,2.99,1.01h1.64l-.92.95c-1.39,1.21-1.65,2.47-1.65,3.31,0,.61.13.97.13.97,1.56,3.55,1.74,6.59,1.74,7.89v.62h.45c1.31,0,4.47.19,8.06,1.76,0,0,.37.15.99.15.82,0,2.08-.28,3.34-1.66l.95-.94v1.37c0,.1-.03.2-.03.3,0,1.44.52,2.36,1,2.97.51.59.99.81.99.81,4.24,1.65,6.75,4.18,7.29,4.81M239.72,79.96s-2.51-2.97-7.23-4.83c-.06,0-2.25-1.05-2.25-4.13v-.75l-.26.3c-1.31,1.44-2.7,1.74-3.62,1.74-.67,0-1.09-.16-1.11-.16-3.57-1.56-6.69-1.76-7.94-1.76-.41,0-.61.04-.61.04h-.2v-.17s-.04-.17-.04-.17v-.02s.04-.24.04-.66c0-1.27-.2-4.26-1.72-7.75,0,0-.17-.44-.17-1.11,0-.9.33-2.31,1.77-3.6l.28-.29h-.72c-3.11,0-4.14-2.19-4.16-2.24-.93-2.34-2.12-4.17-3.12-5.4-.95-1.19-1.7-1.83-1.7-1.83l-.12-.12.07-.15.12-.16s2.89-2.4,4.75-7.15c0-.04,1.03-2.22,4.14-2.22.1,0,.22,0,.32.02h.4l-.28-.29c-1.45-1.31-1.77-2.71-1.77-3.64,0-.65.17-1.09.17-1.12,1.54-3.54,1.73-6.65,1.72-7.92v-.76l.15-.03.19-.05h.03s.21.02.65.02c1.23,0,4.22-.17,7.75-1.71.02-.02.44-.15,1.11-.15.91-.03,2.31.31,3.62,1.72l.26.31.04-.41c-.04-.12-.04-.22-.04-.35,0-3.07,2.19-4.11,2.25-4.14,2.35-.88,4.17-2.09,5.4-3.08,1.21-.99,1.83-1.72,1.83-1.74l.13-.1.12.08.19.13s2.39,2.87,7.12,4.7c.03.03,2.25,1.08,2.25,4.14v.76l.28-.31c1.29-1.41,2.68-1.74,3.6-1.74.67.03,1.09.16,1.11.18,3.49,1.54,6.48,1.71,7.74,1.71.43,0,.66-.02.66-.02h.06l.32.08v.17s-.03.21-.03.59c0,1.28.2,4.38,1.73,7.95.02,0,.17.44.18,1.09,0,.93-.32,2.33-1.77,3.61l-.26.32h.4c.1-.02.22-.02.33-.02,3.08,0,4.13,2.19,4.15,2.22.93,2.38,2.08,4.17,3.03,5.37.96,1.19,1.69,1.78,1.73,1.82l.17.27-.12.12s-2.95,2.52-4.8,7.26c-.02.02-1.07,2.2-4.15,2.2h-.73l.26.29c1.45,1.3,1.77,2.68,1.77,3.6,0,.67-.16,1.11-.16,1.11-1.52,3.49-1.72,6.47-1.72,7.75v.69s0,.01,0,.01l-.06.33h-.17s-.22-.04-.62-.04c-1.26,0-4.38.2-7.92,1.76-.02,0-.44.16-1.11.16-.92,0-2.31-.3-3.6-1.74l-.28-.3v.75c0,3.08-2.22,4.13-2.25,4.13-2.35.92-4.16,2.11-5.34,3.07-1.19.94-1.78,1.65-1.82,1.68l-.27.2-.13-.12Z"/>
        <path class="cls-5" d="M239.76,11.27l.1-.17-.1.17ZM239.89,82.63c.32-.37,2.98-3.32,7.91-5.24,0,0,.55-.24,1.08-.89.59-.66,1.12-1.68,1.12-3.28v-1.76l1.02,1.03c1.33,1.47,2.71,1.76,3.65,1.76.31,0,.58-.02.77-.08.19-.02.3-.07.3-.07,3.93-1.71,7.38-1.94,8.79-1.94.25,0,.41,0,.53.02,0-.09-.04-.34-.04-.69.04-1.42.23-4.75,1.92-8.62,0,0,.18-.41.18-1.06,0-.92-.32-2.31-1.82-3.66l-1.02-1.01h1.45c.12.03.24.03.34.03,1.6,0,2.61-.56,3.26-1.11.66-.55.91-1.11.91-1.08,1.81-4.66,4.6-7.4,5.25-8-.38-.33-3.35-2.98-5.25-7.91,0,.02-.25-.53-.91-1.09-.65-.54-1.66-1.09-3.26-1.09h-1.79l1.06-1.01c1.47-1.34,1.79-2.72,1.79-3.66,0-.66-.18-1.06-.15-1.05-1.78-3.96-1.95-7.39-1.95-8.83v-.54c-.09,0-.34.05-.69.05-1.43,0-4.76-.22-8.61-1.92,0,0-.42-.17-1.08-.17-.94.03-2.31.3-3.65,1.78l-1.02,1.03v-1.77c0-1.58-.53-2.64-1.12-3.27-.53-.65-1.08-.9-1.08-.9-5.25-2.05-7.94-5.26-7.88-5.22-.61.62-3.35,3.42-8,5.22,0,.02-.52.25-1.08.9-.56.63-1.11,1.69-1.11,3.27v1.77l-1-1.03c-1.35-1.49-2.74-1.75-3.65-1.78-.68,0-1.08.17-1.08.15-3.87,1.71-7.19,1.93-8.6,1.93-.38,0-.6-.05-.73-.05,0,.12.03.31.03.54,0,1.44-.19,4.88-1.94,8.82.03,0-.16.4-.16,1.06,0,.93.34,2.31,1.79,3.66l1.04,1.01h-1.78c-1.58,0-2.64.56-3.29,1.09-.65.56-.86,1.09-.86,1.09-2.07,5.26-5.28,7.94-5.26,7.9h0c.63.6,3.43,3.35,5.26,7.98,0,0,.21.56.86,1.11.65.55,1.7,1.11,3.29,1.11.1,0,.22,0,.32-.03h1.45l-1.04,1.04c-1.45,1.33-1.79,2.72-1.79,3.64,0,.65.16,1.06.16,1.06,1.69,3.86,1.91,7.19,1.91,8.59,0,.38-.03.63-.03.72.14-.02.33-.02.56-.02,1.42,0,4.87.23,8.81,1.94,0,0,.4.15,1.08.15.9,0,2.3-.29,3.65-1.79l1-1.01v1.76c0,1.6.56,2.61,1.11,3.28.56.65,1.08.89,1.08.89,4.65,1.81,7.39,4.64,7.97,5.24M239.72,83.03s-2.76-3.27-7.94-5.29c0,0-2.44-1.14-2.44-4.51,0-.11,0-.23.02-.35v-.48l-.32.34c-1.44,1.57-2.96,1.92-3.95,1.92-.75,0-1.19-.17-1.22-.19-3.89-1.69-7.28-1.9-8.67-1.9-.44,0-.67.03-.67.03l-.18.02-.05-.2-.03-.17v-.78c.03-1.37-.19-4.64-1.87-8.46,0,0-.15-.48-.15-1.2,0-1.01.32-2.53,1.91-3.95l.33-.32h-.82c-3.38,0-4.51-2.4-4.53-2.46-1-2.57-2.31-4.55-3.42-5.9-1.04-1.35-1.86-2.02-1.86-2.02l-.14-.11.12-.16.13-.19s3.14-2.62,5.17-7.81c.02-.03,1.15-2.43,4.53-2.43h.82l-.33-.31c-1.59-1.43-1.91-2.93-1.91-3.95,0-.71.15-1.18.15-1.22,1.74-3.88,1.9-7.28,1.9-8.67v-.69l-.03-.16.18-.04.19-.04h.03s.25.01.73.01c1.39,0,4.65-.2,8.47-1.87,0,0,.47-.19,1.22-.19.99,0,2.51.34,3.91,1.92l.36.36v-.47c-.02-.15-.02-.26-.02-.37,0-3.39,2.42-4.51,2.44-4.53,2.59-1.02,4.58-2.33,5.94-3.39,1.3-1.09,2-1.87,2-1.87l.13-.13.15.11.16.11s2.61,3.16,7.82,5.18c0,.02,2.42,1.15,2.42,4.53v.84l.32-.36c1.41-1.58,2.94-1.92,3.97-1.92.71,0,1.18.19,1.18.19,3.82,1.68,7.11,1.87,8.5,1.87.44,0,.72-.01.72-.01h.04l.32.07v.17s-.02.25-.02.69c0,1.38.23,4.78,1.92,8.7,0,0,.18.47.18,1.18,0,1.02-.35,2.52-1.93,3.95l-.32.31h.82c3.38,0,4.53,2.4,4.53,2.43,1.01,2.6,2.3,4.55,3.34,5.86,1.04,1.33,1.82,1.95,1.86,1.99l.2.31-.12.11s-3.25,2.77-5.28,7.94c0,.04-1.14,2.44-4.53,2.44h-.82l.32.32c1.57,1.42,1.93,2.94,1.93,3.95,0,.72-.18,1.19-.18,1.19-1.69,3.83-1.9,7.09-1.9,8.5,0,.45.04.69.04.69v.06l-.04.02-.05.35-.17-.02s-.24-.03-.67-.03c-1.37,0-4.8.21-8.69,1.92,0,0-.48.17-1.18.17-1.03,0-2.55-.35-3.97-1.92l-.32-.34v.83c0,3.37-2.42,4.51-2.45,4.51-2.56,1.03-4.55,2.32-5.82,3.37-1.31,1.04-1.97,1.8-2.02,1.85l-.3.2-.1-.13Z"/>
        <path class="cls-5" d="M239.76,8.32l.1-.18-.1.18ZM239.92,85.61c.26-.35,3.17-3.59,8.55-5.71,0,0,.58-.26,1.2-.96.59-.7,1.16-1.82,1.16-3.52v-1.9l1.09,1.05c1.45,1.64,2.94,1.94,3.96,1.94.73,0,1.18-.14,1.18-.14,4.24-1.89,7.98-2.12,9.52-2.12.28,0,.46,0,.58.02v-.75c0-1.56.22-5.14,2.06-9.33,0,0,.17-.46.17-1.16-.02-1.01-.34-2.52-1.96-3.98l-1.07-1.08h1.5c.13.03.25.03.38.03,1.7,0,2.83-.6,3.56-1.19.69-.6.94-1.19.94-1.19,1.99-5.06,5.04-8.02,5.7-8.65-.35-.28-3.61-3.19-5.7-8.57,0,0-.24-.58-.94-1.19-.73-.6-1.86-1.19-3.56-1.19h-1.89l1.07-1.07c1.62-1.47,1.94-2.96,1.96-3.97,0-.73-.17-1.15-.17-1.15-1.87-4.27-2.09-8.01-2.09-9.55v-.6c-.09,0-.35.02-.77.02-1.53,0-5.14-.22-9.31-2.05,0,0-.45-.15-1.18-.15-1.01,0-2.51.28-3.98,1.93l-1.08,1.05v-1.87c0-1.71-.57-2.86-1.16-3.54-.63-.69-1.2-.98-1.2-.98-5.67-2.22-8.58-5.7-8.55-5.67-.63.65-3.59,3.72-8.65,5.67,0,.03-.59.29-1.19.98-.6.69-1.2,1.84-1.2,3.54v1.9l-1.04-1.08c-1.49-1.65-2.97-1.93-4.01-1.93-.69,0-1.17.15-1.14.14-4.19,1.84-7.79,2.06-9.35,2.06-.38,0-.66-.02-.76-.02,0,.13.02.33.02.6,0,1.55-.21,5.28-2.09,9.55,0,0-.15.43-.15,1.15,0,1.01.33,2.49,1.95,3.98l1.03,1.05h-1.89c-1.73,0-2.83.6-3.53,1.19-.71.61-.98,1.19-.98,1.19-2.19,5.69-5.69,8.59-5.65,8.56h-.03c.69.64,3.73,3.6,5.69,8.66,0,0,.27.59.98,1.19.7.59,1.8,1.19,3.57,1.19.1,0,.24,0,.36-.03h1.48l-1.03,1.08c-1.61,1.47-1.95,2.97-1.95,3.98,0,.7.15,1.16.15,1.16,1.84,4.16,2.07,7.75,2.07,9.3,0,.41-.03.71-.03.78.13-.02.31-.02.57-.02,1.54,0,5.31.23,9.53,2.12,0,0,.15.02.36.08.16.04.47.06.81.06,1.04,0,2.52-.31,4.01-1.94l1.04-1.05v1.9c0,1.7.6,2.82,1.2,3.52.6.71,1.19.96,1.16.96,5.08,1.99,8.05,5.05,8.68,5.71M239.72,86s-2.99-3.55-8.61-5.73c-.02,0-2.62-1.24-2.62-4.85,0-.13.04-.27.04-.42v-.54l-.4.36c-1.54,1.72-3.17,2.1-4.28,2.1-.78-.03-1.27-.2-1.29-.21-4.21-1.84-7.91-2.06-9.42-2.06-.44,0-.72.03-.72.03h-.17l-.02-.17-.04-.22v-.03s.04-.27.04-.78c0-1.5-.24-5.03-2.04-9.16,0,0-.21-.53-.21-1.3,0-1.1.37-2.72,2.07-4.27l.37-.35h-.91c-3.67,0-4.9-2.61-4.9-2.64-1.07-2.79-2.53-4.97-3.67-6.43-1.18-1.43-2.06-2.17-2.06-2.17l-.11-.11.08-.16.13-.19s3.44-2.88,5.63-8.47c0-.03,1.22-2.61,4.86-2.61h.95l-.37-.35c-1.71-1.57-2.07-3.18-2.07-4.29,0-.77.21-1.3.21-1.31,1.83-4.18,2.04-7.89,2.04-9.39v-.72l-.03-.2.17-.02.2-.05.03.03s.28,0,.76,0c1.54,0,5.06-.22,9.21-2.04,0-.02.5-.2,1.27-.2,1.12,0,2.74.37,4.28,2.09l.4.37v-.54c-.04-.14-.04-.27-.04-.39,0-3.64,2.6-4.85,2.65-4.87,2.78-1.1,4.93-2.52,6.4-3.7,1.45-1.15,2.19-2.01,2.19-2.01l.13-.14.15.09.19.13s2.86,3.44,8.47,5.63c0,.02,2.61,1.24,2.61,4.87v.96l.39-.4c1.54-1.72,3.14-2.09,4.24-2.09.77,0,1.29.19,1.29.2,4.16,1.82,7.71,2.04,9.2,2.04.52,0,.77,0,.77,0l.02-.03.02.03.37.05-.03.2s-.02.24-.02.72c0,1.5.23,5.21,2.06,9.4,0,0,.21.53.21,1.3,0,1.07-.36,2.72-2.07,4.26l-.37.38h.92c3.66,0,4.85,2.58,4.88,2.63,1.1,2.79,2.5,4.91,3.63,6.33,1.15,1.4,1.97,2.12,2.02,2.16l.17.31-.09.11s-3.56,2.99-5.73,8.62c-.02.01-1.22,2.62-4.88,2.62h-.92l.37.35c1.71,1.55,2.07,3.17,2.07,4.27,0,.78-.21,1.29-.21,1.29-1.78,4.14-2.04,7.69-2.01,9.2v.82l-.04.35h-.18s-.24-.03-.75-.03c-1.5,0-5.2.22-9.42,2.06,0,0-.51.18-1.29.18-1.1.03-2.7-.35-4.24-2.04l-.39-.39v.96c0,3.63-2.61,4.85-2.63,4.86-2.79,1.07-4.91,2.46-6.33,3.62-1.42,1.13-2.13,1.98-2.16,2.03l-.3.19-.13-.12Z"/>
        <path class="cls-5" d="M239.75,5.3l.12-.18-.12.18ZM239.92,88.63c.24-.29,3.35-3.86,9.22-6.12,0-.03.62-.34,1.26-1.08.67-.78,1.31-1.97,1.31-3.82v-1.99l1.15,1.11c1.56,1.74,3.2,2.09,4.28,2.13.79,0,1.27-.2,1.25-.2,4.59-2.02,8.61-2.26,10.27-2.26h.65c0-.07-.02-.36-.02-.82,0-1.67.24-5.55,2.24-10.04,0,0,.17-.48.17-1.26,0-1.1-.34-2.7-2.11-4.31l-1.09-1.12h1.56c.15.03.3.03.43.03,1.85,0,3.06-.65,3.8-1.3.77-.66,1.05-1.29,1.05-1.27,2.14-5.48,5.45-8.68,6.14-9.33-.3-.26-3.83-3.39-6.14-9.23,0,0-.28-.64-1.05-1.28-.74-.67-1.95-1.32-3.8-1.32h-1.99l1.09-1.12c1.77-1.57,2.11-3.2,2.11-4.28,0-.77-.17-1.26-.17-1.25-2.02-4.6-2.26-8.63-2.26-10.3,0-.27,0-.49.03-.64-.11.02-.4.04-.85.04-1.67,0-5.52-.23-10.03-2.23,0,0-.14-.05-.35-.1-.23-.04-.53-.07-.92-.07-1.08,0-2.72.34-4.28,2.09l-1.15,1.11v-1.99c0-1.86-.64-3.06-1.31-3.84-.65-.74-1.26-1.05-1.26-1.05-6.11-2.37-9.25-6.15-9.22-6.09v-.03c-.68.68-3.86,4.02-9.31,6.12,0,0-.63.3-1.31,1.05-.65.78-1.29,1.97-1.29,3.84v1.99l-1.09-1.11c-1.59-1.75-3.21-2.09-4.31-2.09-.79,0-1.27.17-1.27.15-4.5,2.02-8.37,2.25-10.03,2.25-.45,0-.77-.03-.85-.04.03.15.03.36.03.64,0,1.68-.25,5.72-2.28,10.29,0,0-.19.49-.19,1.26.03,1.08.38,2.71,2.16,4.3l1.1,1.1h-2.01c-1.85,0-3.07.65-3.81,1.32-.78.64-1.07,1.28-1.07,1.26-2.26,5.87-5.82,8.99-6.13,9.25.7.65,4.02,3.85,6.13,9.31,0,0,.29.63,1.07,1.29.74.66,1.96,1.3,3.81,1.3.12,0,.28,0,.42-.03h1.56l-1.11,1.13c-1.74,1.6-2.09,3.2-2.13,4.3,0,.75.19,1.26.19,1.23,2,4.52,2.22,8.38,2.22,10.06,0,.44,0,.73-.02.82h.67c1.64,0,5.69.24,10.26,2.26,0,0,.48.2,1.27.2,1.1-.04,2.72-.38,4.31-2.14l1.09-1.1v1.99c0,1.85.64,3.04,1.29,3.82.68.74,1.31,1.08,1.31,1.04,5.45,2.14,8.65,5.45,9.31,6.15M239.72,88.98s-3.23-3.8-9.28-6.13c-.03-.03-2.82-1.32-2.82-5.25,0-.15.04-.26.04-.4v-.66l-.45.45c-1.66,1.85-3.4,2.2-4.57,2.2-.86,0-1.4-.17-1.43-.18-4.53-1.99-8.48-2.22-10.11-2.22-.5,0-.8.02-.8.02h-.19l-.03-.17-.04-.22v-.03s.01-.31.01-.82c0-1.64-.22-5.44-2.19-9.89,0-.05-.2-.55-.2-1.41,0-1.17.36-2.94,2.21-4.58l.45-.43h-1.04c-3.91,0-5.24-2.8-5.24-2.84-1.19-3.02-2.74-5.34-3.98-6.89-1.24-1.57-2.18-2.37-2.18-2.37l-.13-.12.09-.15.12-.19.04-.02s3.68-3.08,6.04-9.12c0-.03,1.33-2.81,5.24-2.81.12,0,.28,0,.42.01h.63l-.45-.43c-1.85-1.65-2.21-3.43-2.21-4.59,0-.85.2-1.37.2-1.42,1.99-4.51,2.23-8.51,2.23-10.14,0-.49-.05-.78-.05-.78v-.16l.17-.06.22-.03h.06s.28,0,.82,0c1.62,0,5.42-.22,9.9-2.19,0,0,.54-.2,1.4-.2,1.17,0,2.91.41,4.57,2.22l.45.44v-.61c0-.14-.04-.28-.04-.43,0-3.91,2.79-5.22,2.82-5.25,3.04-1.16,5.35-2.7,6.93-3.97,1.56-1.24,2.35-2.18,2.35-2.18l.13-.16.15.11.19.15s3.09,3.69,9.15,6.05c.03.03,2.78,1.33,2.78,5.25v1.05l.45-.43c1.64-1.83,3.41-2.24,4.59-2.24.81,0,1.36.2,1.4.2,4.47,1.96,8.3,2.19,9.9,2.19.55,0,.83,0,.83,0h.07l.37.09-.02.16s-.03.28-.03.78c0,1.62.25,5.63,2.22,10.15,0,.04.22.55.22,1.4,0,1.17-.41,2.94-2.22,4.56l-.45.46h.61c.14-.01.32-.01.44-.01,3.91,0,5.23,2.78,5.23,2.81,1.18,3.04,2.7,5.31,3.91,6.83,1.22,1.54,2.14,2.29,2.18,2.34l.17.31-.09.12s-3.82,3.22-6.18,9.28c0,.01-1.32,2.81-5.23,2.81h-1.05l.44.43c1.83,1.64,2.23,3.41,2.23,4.58,0,.85-.22,1.37-.22,1.41-1.95,4.45-2.19,8.27-2.19,9.9,0,.5.02.82.02.82v.06l-.07.36h-.17s-.28-.02-.8-.02c-1.6,0-5.6.23-10.12,2.23-.04,0-.58.17-1.4.17-1.17,0-2.94-.35-4.59-2.2l-.45-.43v1.04c0,3.93-2.75,5.22-2.8,5.25-3.02,1.17-5.3,2.72-6.83,3.91-1.51,1.22-2.29,2.14-2.33,2.16l-.3.19-.13-.13Z"/>
        <path class="cls-5" d="M239.89,91.88c1.13-1.17,4.48-4.3,9.93-6.42,0,0,.05,0,.07-.03.06-.03.16-.1.29-.18.23-.14.54-.42.86-.8.65-.75,1.31-1.91,1.31-3.82v-3.55l2.17,2.2c1.65,1.78,3.24,2.1,4.32,2.1.58,0,.99-.08,1.14-.13l.04-.02c5.11-2.21,9.63-2.53,11.49-2.53h.13v-.34c0-1.85.27-6.19,2.49-11.22,0-.03.04-.11.05-.27.04-.21.1-.53.1-.9,0-1.07-.33-2.66-2.17-4.32l-2.17-2.17h3.54c3.31,0,4.55-1.98,4.8-2.44.02-.03.05-.05.05-.06,2.1-5.32,5.14-8.7,6.45-10-1.2-1.12-4.3-4.45-6.45-9.91,0,0,0-.01-.05-.09-.02-.05-.09-.15-.15-.26-.17-.24-.42-.55-.8-.87-.76-.64-1.95-1.28-3.85-1.31-.12,0-.28,0-.45.03h-3.09l2.22-2.22c1.79-1.62,2.12-3.21,2.12-4.31,0-.55-.1-.98-.15-1.13v-.05c-2.27-5.12-2.51-9.6-2.51-11.49v-.1h-.36c-1.89,0-6.2-.29-11.22-2.49,0,0-.13-.01-.28-.07-.22-.03-.55-.07-.92-.07-1.08,0-2.67.32-4.34,2.14l-2.15,2.17v-3.54c0-3.29-1.99-4.55-2.46-4.82h-.05c-5.47-2.17-8.81-5.29-9.95-6.46-1.26,1.28-4.67,4.35-9.98,6.45,0,0-.01,0-.08,0-.06.04-.15.11-.27.19-.23.17-.53.42-.88.79-.62.74-1.27,1.94-1.3,3.83,0,.12.03.28.03.42v3.12l-2.21-2.2c-1.63-1.8-3.22-2.12-4.31-2.12-.57,0-.97.07-1.12.15h-.05c-5.02,2.2-9.32,2.49-11.19,2.49h-.38v.13c0,1.88-.28,6.34-2.51,11.46,0,.04,0,.1-.04.31-.06.18-.13.5-.13.86.02,1.1.35,2.69,2.16,4.34l2.16,2.19h-3.1c-.12-.03-.31-.03-.4-.03-3.3.03-4.57,2.01-4.84,2.44q-.02.05-.02.08c-2.15,5.47-5.28,8.8-6.42,9.92,1.25,1.3,4.33,4.68,6.42,10,0,.01,0,.03.02.06.05.06.11.17.18.3.14.24.43.53.79.85.75.63,1.94,1.29,3.84,1.29h3.52l-2.17,2.17c-1.8,1.66-2.12,3.25-2.15,4.32,0,.54.13,1,.17,1.12v.05c2.22,5.02,2.49,9.35,2.49,11.22v.34h.09c1.9,0,6.38.31,11.51,2.53.05,0,.11.04.29.1.21.03.51.07.89.07,1.07-.02,2.68-.34,4.36-2.13l2.15-2.19v3.11c0,.15-.03.28-.03.44.03,3.29,2,4.54,2.45,4.8.06.03.08.03.08.03,5.32,2.06,8.72,5.16,9.98,6.42M239.27,93.48s-.17-.24-.6-.65c-.44-.4-1.06-1.01-1.91-1.67-1.69-1.34-4.18-3.01-7.45-4.29h-.01s-.03,0-.03,0c-.1-.04-3.28-1.61-3.39-6.05-1.8,1.73-3.68,2.13-4.98,2.13-.99,0-1.64-.24-1.71-.25h-.02v-.04c-4.9-2.12-9.17-2.38-10.95-2.38-.52,0-.79.03-.79.03l-.7.05-.13-.66-.09-.32.05-.12s.01-.3.01-.88c0-1.72-.24-5.84-2.36-10.65h-.03c-.01-.08-.24-.73-.24-1.75,0-1.3.38-3.21,2.11-4.96-4.44-.09-6.01-3.28-6.07-3.4l-.02-.03h0c-1.88-4.9-4.67-8.07-5.92-9.36-.42-.4-.69-.61-.69-.61l-.52-.43.37-.58.2-.29.08-.07s.21-.17.65-.6c.4-.37.98-.99,1.62-1.83,1.31-1.63,2.97-4.1,4.2-7.35v-.03l.02-.03c.06-.09,1.63-3.31,6.07-3.41-1.73-1.76-2.11-3.65-2.11-4.95,0-.99.22-1.64.24-1.7h0s.03-.05.03-.05c2.13-4.88,2.38-9.15,2.38-10.89,0-.54-.02-.83-.02-.83l-.07-.67.69-.16.33-.06.13.02s.27.02.87.02c1.72,0,5.82-.28,10.64-2.37h.02v-.02s.72-.26,1.71-.26c1.33-.02,3.21.4,4.98,2.12.11-4.42,3.29-6.02,3.39-6.04h.03s.01-.01.01-.01c4.89-1.92,8.07-4.7,9.36-5.98.42-.41.6-.64.6-.64l.45-.53.57.39.31.18.04.09s.19.22.61.65c.4.39,1.03.96,1.85,1.61,1.64,1.31,4.1,2.93,7.33,4.23h.06c.12.02,3.31,1.63,3.42,6.05,1.77-1.72,3.67-2.12,4.95-2.12.99,0,1.66.24,1.7.26l.02.02h.04c4.81,2.1,8.92,2.37,10.66,2.37.58,0,.85-.02.85-.02l.12-.02,1,.22-.05.67s-.02.29-.02.8c0,1.73.24,6.04,2.39,10.91v.04h0c.02.07.27.72.27,1.72.02,1.3-.4,3.21-2.11,4.95,4.43.11,6,3.32,6.05,3.41v.06c1.92,4.9,4.62,7.96,5.85,9.18.42.44.65.6.65.6l-.51.59.51-.59.08.07.56.87-.53.43s-.23.22-.62.61c-.43.43-1.03,1.08-1.7,1.91-1.36,1.68-3.03,4.18-4.28,7.45v.04c-.06.12-1.62,3.31-6.05,3.4,1.71,1.77,2.13,3.67,2.11,4.96,0,1.02-.25,1.67-.27,1.72v.03c-2.11,4.81-2.37,8.92-2.37,10.65,0,.58.02.88.02.88v.1l-.2,1.01-.69-.05s-.26-.03-.81-.03c-1.74,0-6.05.26-10.91,2.38l-.05.04s-.71.25-1.7.25c-1.31,0-3.18-.4-4.95-2.13-.11,4.45-3.31,6.01-3.42,6.05h-.06c-4.84,1.93-7.95,4.64-9.17,5.85-.42.44-.61.63-.61.63l-.06.09-.85.55-.45-.52Z"/>
      </g>
      <g class="cls-16">
        <rect class="cls-4" x="209.72" y="16.86" width="60.33" height="60.3"/>
      </g>
      <path class="cls-13" d="M239.87,57.13c-5.58,0-10.13-4.53-10.13-10.13s4.55-10.1,10.13-10.1,10.15,4.52,10.15,10.1-4.54,10.13-10.15,10.13"/>
      <g class="cls-18">
        <rect class="cls-6" x="232.51" y="39.62" width="14.75" height="14.77"/>
      </g>
      <g>
        <path class="cls-2" d="M110.31,15.98c-7.98,7.93-12.88,18.9-12.88,31.01s4.9,23.09,12.88,31.04c7.95,7.94,18.9,12.86,31.03,12.86s23.1-4.92,31.03-12.86c7.95-7.95,12.86-18.92,12.86-31.04s-4.91-23.08-12.86-31.01c-7.93-7.95-18.9-12.87-31.03-12.87s-23.09,4.92-31.03,12.87M95.89,47c0-25.09,20.35-45.44,45.45-45.44s45.45,20.34,45.45,45.44-20.37,45.45-45.45,45.45-45.45-20.32-45.45-45.45"/>
        <path class="cls-2" d="M111.94,17.63c-7.54,7.52-12.16,17.9-12.16,29.36s4.62,21.87,12.16,29.4c7.53,7.52,17.9,12.16,29.38,12.16s21.88-4.64,29.39-12.16c7.55-7.53,12.2-17.92,12.2-29.4s-4.64-21.85-12.2-29.36c-7.51-7.55-17.89-12.19-29.39-12.19s-21.85,4.64-29.38,12.19M98.84,47c0-23.44,19.02-42.49,42.47-42.49s42.53,19.05,42.53,42.49-19.02,42.5-42.53,42.5-42.47-19.04-42.47-42.5"/>
        <path class="cls-2" d="M113.76,19.41c-7.11,7.08-11.46,16.81-11.46,27.58s4.36,20.55,11.46,27.59c7.04,7.07,16.8,11.46,27.58,11.46s20.5-4.39,27.58-11.46c7.08-7.04,11.42-16.77,11.42-27.59s-4.35-20.51-11.42-27.58c-7.07-7.06-16.8-11.44-27.58-11.44s-20.54,4.38-27.58,11.44M101.39,47c0-22.03,17.89-39.93,39.95-39.93s39.93,17.9,39.93,39.93-17.88,39.94-39.93,39.94-39.95-17.88-39.95-39.94"/>
        <path class="cls-2" d="M115.39,21.06c-6.63,6.66-10.73,15.81-10.73,25.94s4.11,19.32,10.73,25.97c6.64,6.63,15.82,10.73,25.95,10.73s19.29-4.1,25.94-10.73c6.65-6.64,10.76-15.83,10.76-25.97s-4.11-19.28-10.76-25.94c-6.64-6.64-15.8-10.75-25.94-10.75s-19.31,4.11-25.95,10.75M104.06,47c0-20.57,16.67-37.29,37.28-37.29s37.31,16.72,37.31,37.29-16.72,37.3-37.31,37.3-37.28-16.72-37.28-37.3"/>
        <path class="cls-2" d="M116.92,22.59c-6.25,6.26-10.12,14.88-10.12,24.41s3.87,18.16,10.12,24.42c6.24,6.26,14.89,10.12,24.4,10.12s18.19-3.86,24.41-10.12c6.29-6.25,10.13-14.88,10.13-24.42s-3.84-18.15-10.13-24.41c-6.22-6.26-14.85-10.13-24.41-10.13s-18.16,3.86-24.4,10.13M106.37,47c0-19.31,15.66-34.98,34.95-34.98s34.97,15.66,34.97,34.98-15.63,34.98-34.97,34.98-34.95-15.66-34.95-34.98"/>
        <path class="cls-2" d="M120.87,26.56c-5.22,5.22-8.47,12.45-8.47,20.43s3.25,15.21,8.47,20.45c5.27,5.23,12.48,8.47,20.47,8.47s15.21-3.24,20.43-8.47c5.26-5.24,8.46-12.46,8.46-20.45s-3.2-15.21-8.46-20.43c-5.22-5.23-12.45-8.47-20.43-8.47s-15.2,3.24-20.47,8.47M112.09,47c0-16.11,13.11-29.21,29.25-29.21s29.21,13.1,29.21,29.21-13.08,29.26-29.21,29.26-29.25-13.12-29.25-29.26"/>
        <path class="cls-1" d="M85.43,56.68c-.21-3.39-1.15-6.7-2.84-9.69,1.69-2.94,2.63-6.3,2.84-9.66,1.48,2.89,2.37,6.17,2.37,9.66s-.89,6.8-2.37,9.69M84.96,57.57l-.12.31v.1c-1.79,3.01-4.32,5.57-7.32,7.39-.07-3.51-.99-7.06-2.8-10.34,3.21-1.91,5.77-4.52,7.57-7.58,1.7,3.1,2.61,6.57,2.67,10.09v.03M82.03,68.55c-1.75,3.03-4.14,5.42-6.91,7.2,1.53-3.03,2.36-6.4,2.39-9.81,2.94-1.72,5.42-4.13,7.28-6.96-.14,3.25-1.04,6.53-2.77,9.57M74.25,76.3l-.27.25s0,.02-.03.06c-3.07,1.71-6.53,2.64-10.02,2.72,1.67-3.06,2.67-6.63,2.73-10.36,3.73-.05,7.27-1.04,10.34-2.73-.07,3.5-.99,6.94-2.7,10.03t-.05.04M66.24,84.32c-3.01,1.74-6.3,2.62-9.57,2.78,2.86-1.86,5.26-4.36,6.97-7.29,3.41-.06,6.79-.88,9.82-2.42-1.77,2.76-4.18,5.15-7.22,6.93M55.68,87.14h-.05l-.35.09s-.04.02-.04.02c-3.52-.05-6.98-.97-10.05-2.66,3.03-1.81,5.64-4.37,7.55-7.6,3.25,1.83,6.82,2.75,10.33,2.79-1.84,3.01-4.38,5.54-7.39,7.36M44.7,90.1c-3.51,0-6.77-.88-9.68-2.38,3.38-.21,6.72-1.14,9.68-2.84,2.97,1.7,6.3,2.63,9.68,2.84-2.91,1.47-6.17,2.38-9.68,2.38M33.72,87.14c-3.01-1.81-5.57-4.35-7.38-7.36,3.53-.05,7.07-.96,10.33-2.79,1.94,3.23,4.53,5.78,7.54,7.6-3.06,1.69-6.51,2.61-10.01,2.67-.05,0-.48-.12-.48-.12M23.17,84.32c-3.04-1.78-5.45-4.17-7.19-6.93,3.01,1.55,6.38,2.37,9.79,2.42,1.72,2.92,4.12,5.43,6.94,7.29-3.25-.16-6.53-1.04-9.55-2.78M15.44,76.54l-.28-.25-.02-.03c-1.75-3.11-2.66-6.54-2.74-10.04,3.07,1.7,6.6,2.68,10.37,2.73.02,3.73,1,7.3,2.72,10.36-3.52-.08-6.97-1.01-10.04-2.72t-.02-.06M7.38,68.55c-1.74-3.04-2.61-6.32-2.78-9.57,1.86,2.83,4.35,5.24,7.29,6.96.03,3.41.84,6.75,2.41,9.81-2.76-1.78-5.16-4.17-6.93-7.2M4.48,57.58s0-.02-.03-.03c.05-3.52.96-6.97,2.67-10.04,1.81,3.01,4.37,5.62,7.61,7.53-1.84,3.28-2.76,6.82-2.81,10.34-3.02-1.82-5.53-4.36-7.34-7.36l-.1-.43ZM1.63,47c0-3.48.88-6.77,2.36-9.66.17,3.36,1.14,6.71,2.82,9.66-1.68,2.98-2.65,6.3-2.82,9.7-1.49-2.9-2.36-6.19-2.36-9.7M4.48,36.45l.1-.43c1.81-3.02,4.32-5.58,7.34-7.39.05,3.52.96,7.06,2.81,10.35-3.24,1.91-5.8,4.5-7.61,7.54-1.7-3.06-2.62-6.54-2.67-10.05t.03-.02M7.38,25.45c1.77-3,4.17-5.41,6.93-7.19-1.57,3.01-2.39,6.39-2.41,9.78-2.95,1.76-5.43,4.15-7.29,6.99.17-3.25,1.04-6.54,2.78-9.58M15.15,17.76l.28-.3s.02-.04.02-.04c3.07-1.71,6.51-2.65,10.04-2.73-1.73,3.1-2.71,6.59-2.72,10.35-3.77.08-7.3,1.05-10.37,2.76.07-3.52.98-6.96,2.74-10.03,0,0,0,0,.02,0M23.17,9.69c3.02-1.73,6.3-2.64,9.55-2.79-2.83,1.86-5.22,4.36-6.94,7.31-3.39,0-6.78.85-9.79,2.39,1.74-2.76,4.15-5.16,7.19-6.91M33.76,6.88l.35-.09s.03,0,.08-.04c3.49.04,6.94.97,10.01,2.66-3,1.81-5.6,4.39-7.54,7.61-3.26-1.83-6.82-2.75-10.33-2.81,1.81-3.01,4.37-5.53,7.43-7.34M44.7,3.94c3.52,0,6.77.83,9.68,2.35-3.38.18-6.71,1.14-9.68,2.83-2.95-1.7-6.3-2.65-9.68-2.83,2.9-1.52,6.17-2.35,9.68-2.35M55.28,6.79l.4.09c3.01,1.81,5.55,4.33,7.39,7.34-3.51.06-7.07.97-10.33,2.81-1.91-3.22-4.53-5.8-7.55-7.61,3.07-1.7,6.53-2.62,10.05-2.66,0,.04.03.04.04.04M66.24,9.69c3.04,1.75,5.45,4.15,7.22,6.91-3.03-1.54-6.41-2.39-9.82-2.39-1.71-2.95-4.1-5.45-6.97-7.31,3.27.15,6.56,1.05,9.57,2.79M73.98,17.45l.27.27s.02.04.05.04c1.72,3.05,2.63,6.51,2.7,10.03-3.07-1.71-6.58-2.68-10.34-2.76-.05-3.76-1.05-7.25-2.75-10.35,3.51.08,6.94,1.02,10.04,2.73,0,0,.03,0,.03.04M82.03,25.45c1.73,3.04,2.63,6.33,2.77,9.58-1.86-2.85-4.34-5.23-7.28-6.99-.04-3.39-.87-6.77-2.39-9.78,2.77,1.78,5.16,4.19,6.91,7.19M74.03,54.87c-2.11,1.18-4.36,1.98-6.63,2.38.13.16.21.31.28.45,2.24-.45,4.49-1.24,6.58-2.42,1.86,3.29,2.75,6.86,2.79,10.37-3.06,1.74-6.62,2.76-10.38,2.82-.65-.02-.43-.18-.49.28-.05,3.77-1.08,7.53-2.81,10.58-3.57-.03-7.08-.92-10.38-2.77,1.19-2.1,1.95-4.3,2.38-6.55-.14-.12-.27-.2-.43-.29-.41,2.26-1.18,4.5-2.38,6.6-1.1-.66-2.1-1.36-3.02-2.15-.17.08-.32.18-.48.25,1,.88,2.08,1.64,3.24,2.32-1.93,3.26-4.59,5.82-7.62,7.6-3.03-1.78-5.68-4.34-7.63-7.6,1.19-.69,2.29-1.44,3.25-2.32-.15-.07-.31-.17-.48-.25-.92.79-1.91,1.49-2.97,2.15-1.2-2.1-1.99-4.34-2.41-6.6-.14.09-.32.17-.44.29.44,2.25,1.23,4.45,2.38,6.55-3.24,1.85-6.8,2.74-10.34,2.77-1.72-3.05-2.82-6.84-2.86-10.63-.2-.05-.12-.05-.2-.22-3.79-.05-7.55-1.07-10.6-2.82.01-3.51.92-7.08,2.75-10.37,2.09,1.17,4.34,1.97,6.55,2.42.13-.13.21-.29.3-.45-2.25-.4-4.49-1.2-6.59-2.4.65-1.08,1.37-2.07,2.13-3-.08-.15-.14-.32-.22-.45-.86.98-1.64,2.05-2.33,3.22-3.23-1.92-5.78-4.55-7.59-7.62,1.81-3.04,4.36-5.69,7.59-7.63.69,1.19,1.47,2.26,2.33,3.26.08-.16.15-.3.22-.46-.76-.93-1.48-1.94-2.13-3.01,2.1-1.2,4.34-1.98,6.59-2.42-.09-.16-.2-.29-.3-.43-2.21.43-4.46,1.24-6.55,2.4-1.84-3.27-2.74-6.84-2.75-10.34,3.06-1.77,6.81-2.81,10.6-2.86.27.09.87-.27.24-.27.05-3.76,1.1-7.48,2.82-10.56,3.54.03,7.1.9,10.34,2.77-1.15,2.11-1.94,4.3-2.38,6.57.12.07.3.17.44.27.42-2.26,1.22-4.5,2.41-6.6,1.06.65,2.06,1.37,2.99,2.13.15-.06.31-.15.46-.25-.96-.85-2.06-1.61-3.25-2.32,1.95-3.24,4.6-5.8,7.63-7.57,3.03,1.77,5.69,4.33,7.62,7.57-1.16.71-2.24,1.47-3.24,2.32.16.1.3.21.48.25.92-.77,1.91-1.48,3.02-2.13,1.2,2.1,1.97,4.34,2.38,6.6.16-.1.29-.2.43-.27-.43-2.27-1.19-4.46-2.38-6.57,3.29-1.87,6.83-2.74,10.38-2.77,1.73,3.07,2.76,6.8,2.81,10.56.33.2.29,0,.29,0,0,0-.09.15-.04.28,3.75.05,7.54,1.09,10.61,2.86-.04,3.5-.93,7.08-2.79,10.34-2.08-1.16-4.33-1.97-6.58-2.4-.07.14-.15.27-.28.43,2.26.43,4.52,1.22,6.63,2.42-.65,1.07-1.38,2.08-2.16,3.01.07.16.14.3.25.46.84-1,1.64-2.07,2.33-3.26,3.25,1.93,5.78,4.59,7.59,7.63-1.8,3.07-4.34,5.7-7.59,7.62-.69-1.17-1.49-2.24-2.33-3.22-.1.13-.17.3-.25.45.78.93,1.51,1.92,2.16,3.02M84.83,36.07l.12.38v.02c-.06,3.52-.97,6.99-2.67,10.05-1.8-3.04-4.36-5.63-7.57-7.54,1.81-3.29,2.73-6.83,2.8-10.35,2.99,1.82,5.5,4.35,7.32,7.39v.05ZM86.37,35.84c-.02-3.82-1-7.64-3.03-11.15-2.02-3.51-4.88-6.26-8.11-8.18-1.94-3.27-4.69-6.11-8.19-8.16-3.55-2.03-7.37-2.97-11.15-3.01-3.32-1.88-7.14-2.94-11.19-2.94s-7.87,1.06-11.16,2.94c-3.81.03-7.6.98-11.15,3.01-3.52,2.05-6.27,4.89-8.18,8.16-3.28,1.92-6.12,4.67-8.16,8.18-2.04,3.54-2.98,7.37-3.03,11.15C1.19,39.13.1,42.94.1,47s1.09,7.88,2.93,11.17c.05,3.8.99,7.63,3.03,11.14,2.04,3.51,4.88,6.27,8.16,8.2,1.91,3.26,4.66,6.12,8.18,8.15,3.55,2.03,7.34,2.98,11.15,3.02,3.29,1.84,7.1,2.94,11.16,2.94s7.87-1.1,11.19-2.94c3.78-.04,7.6-.99,11.15-3.02,3.5-2.03,6.25-4.89,8.19-8.15,3.23-1.92,6.1-4.69,8.11-8.2,2.03-3.53,3.01-7.34,3.03-11.14,1.87-3.3,2.98-7.11,2.98-11.17s-1.11-7.87-2.98-11.16"/>
      </g>
      <g class="cls-21">
        <rect class="cls-7" x="13.91" y="16.21" width="61.58" height="61.59"/>
      </g>
      <path class="cls-13" d="M44.7,57.03c-5.53,0-10.03-4.48-10.03-10.03s4.51-10.03,10.03-10.03,10.03,4.52,10.03,10.03-4.49,10.03-10.03,10.03"/>
      <g class="cls-20">
        <rect class="cls-8" x="37.48" y="39.78" width="14.48" height="14.46"/>
      </g>
      <g class="cls-19">
        <rect class="cls-10" x="110.07" y="15.74" width="62.5" height="62.52"/>
      </g>
      <path class="cls-13" d="M141.32,57.03c-5.53,0-10.01-4.48-10.01-10.03s4.48-10.03,10.01-10.03,10.06,4.52,10.06,10.03-4.51,10.03-10.06,10.03"/>
      <g class="cls-22">
        <rect class="cls-9" x="134.11" y="39.78" width="14.48" height="14.46"/>
      </g>
      <g>
        <path class="cls-15" d="M214.8,145.59c2.64-6.67,5.76-14.58,5.76-14.58h.09l6.34,14.58h-12.19ZM236.13,155.59c-.15,0-.55-.23-.68-.56-.03-.09-.08-.19-.12-.29-1.63-3.6-13.34-29.8-13.34-29.8h-.09c-8.14,20.39-11.04,27.45-11.94,29.65-.07.15-.15.31-.24.44-.12.33-.48.56-.64.56h-.29v.1h2.95v-.1h-.15c-.34,0-.56-.36-.48-.6.02-.1.05-.21.1-.35,0-.02,1.47-3.71,3.23-8.19h12.94l3.52,8.08c.08.16.12.31.22.49.12.35-.29.57-.45.57h-.3v.1h6.02v-.1h-.27Z"/>
        <path class="cls-15" d="M151.96,145.59c2.67-6.67,5.81-14.58,5.81-14.58h.07l6.36,14.58h-12.24ZM173.3,155.59c-.15,0-.51-.23-.67-.56-.03-.09-.08-.19-.13-.29-1.57-3.6-13.32-29.8-13.32-29.8h-.09c-8.14,20.39-11.03,27.45-11.95,29.65-.07.15-.12.31-.22.44-.12.33-.5.56-.65.56h-.29v.1h2.94v-.1h-.11c-.33,0-.57-.36-.51-.6.02-.1.07-.21.11-.35.01-.02,1.48-3.71,3.25-8.19h12.92l3.51,8.08c.11.16.15.31.22.49.15.35-.3.57-.45.57h-.29v.1h6.05v-.1h-.31Z"/>
        <path class="cls-15" d="M56.57,145.59c2.66-6.67,5.8-14.58,5.8-14.58h.04l6.37,14.58h-12.21ZM77.89,155.59c-.15,0-.52-.23-.67-.56-.06-.09-.09-.19-.16-.29-1.6-3.6-13.29-29.8-13.29-29.8h-.07c-8.16,20.39-11.06,27.45-11.97,29.65-.05.15-.15.31-.21.44-.14.33-.51.56-.66.56h-.3v.1h2.94v-.1h-.12c-.36,0-.56-.36-.51-.6.04-.1.05-.21.1-.35.04-.02,1.5-3.71,3.28-8.19h12.91l3.51,8.08c.08.16.15.31.21.49.14.35-.29.57-.43.57h-.27v.1h5.98v-.1h-.27Z"/>
        <path class="cls-15" d="M111.52,127.89h0v-1.29c0-.35.32-.56.46-.56h.29v-.1h-2.47v.1h.3c.14,0,.44.2.44.56v23.76l-23.76-24.76h-.11c0,16.36.04,29.03.04,29.05v.39c0,.34-.32.56-.48.56h-.28v.1h2.49v-.1h-.29c-.15,0-.45-.22-.45-.56v-23l23.8,24.81v-28.96Z"/>
        <path class="cls-15" d="M143.96,125.26v.23c0,.16-.2.47-.55.47h-21.32c-.37,0-.57-.31-.57-.47v-.23h-.09v2.31h.09v-.29c0-.14.2-.46.57-.46h8.59v28.21c0,.35-.29.57-.43.57h-.28v.1h5.54v-.1h-.31c-.13,0-.42-.22-.42-.57v-28.21h8.62c.35,0,.55.32.55.46v.29h.1v-2.31h-.1Z"/>
        <path class="cls-15" d="M185.78,140.32v-13.51h2.44c4.8,0,7.43,2.51,7.43,6.73s-2.64,6.78-7.75,6.78h-2.13ZM204,155.59c-.53,0-1.37-.5-1.71-.88-5.05-5.43-12.03-13.62-12.03-13.62h.36c.96,0,1.91-.12,2.88-.29,3.77-.67,6.72-3.15,6.72-7.24,0-4.85-4.31-7.61-9.89-7.61h-9.36v.1h.31c.15,0,.44.2.44.56v28.43c0,.35-.28.57-.44.57h-.31v.1h5.57v-.1h-.3c-.13,0-.46-.22-.46-.57v-13.47l11.92,14.14h6.52v-.1h-.22Z"/>
      </g>
    </g>
    <g>
      <path class="cls-11" d="M99.25,190.73l2.55,2.21c.94.83,1.19,1.92,1.19,3.05,0,2.69-2.77,3.96-3.72,6.22-.27.64-.46,1.35-.4,2.04.02.27.18,1.37.51,1.44,2.4.56,4.36-1.13,3.59-3.81-.18-.73-.31-1.03-.65-1.49h.15l2.55,2.25c.54.55.82,1.01.82,1.76.14,2.15-1.63,3.8-3.54,3.8-.86,0-1.57-.3-2.1-.75l-2.92-2.55c-.86-.75-1.06-1.64-1.06-2.76,0-2.54,2.06-4,2.99-6.18.38-.9.52-1.73.51-2.71,0-.77,0-1.78-.55-2.39l.09-.12Z"/>
      <path class="cls-12" d="M105.54,210.22s2.83,2.42,3.06,2.62l-.15.04c-.83-.69-1.81-1.01-2.99-1.05-1.08-.05-2.1.24-3.1.61-.45.17-.9.34-1.35.52-.67.27-1.41.44-2.11.36-1.09-.13-2.11-.92-2.96-1.69l-2.48-2.14s.14-.04.15-.04c1.46.83,2.81,1.22,4.59.97.69-.1,3.25-1.25,4-1.34.56-.07.97-.05,1.41.07.89.25,1.28.58,1.94,1.08"/>
      <text class="cls-17" transform="translate(110.96 206.69)"><tspan x="0" y="0">Max Group</tspan></text>
    </g>
  </g>
  <rect class="cls-15" x="303.18" y="0" width="1.64" height="206.19"/>
  <g>
    <path class="cls-14" d="M372.51,123.12h-23.95v-3.45c2.02,0,3.5-.14,4.42-.43.92-.29,1.39-.97,1.39-2.04,0-.75-.15-1.51-.45-2.29l-2.4-6h-16.49l-1.24,3.3c-.7,1.85-1.05,3.19-1.05,4.01,0,1.5.58,2.45,1.74,2.85,1.16.4,2.52.6,4.07.6v3.45h-17.5v-3.45c1.4,0,2.59-.26,3.56-.79s1.9-1.52,2.79-2.98c.89-1.46,1.84-3.53,2.87-6.2l14.66-38.38h3.56l15.48,39.58c1.12,2.8,1.95,4.69,2.47,5.68.52.99,1.25,1.75,2.17,2.29.92.54,2.22.81,3.9.81v3.45ZM350.18,105.25l-7.01-17.73-6.67,17.73h13.68Z"/>
    <path class="cls-14" d="M429.22,103.07c-1.45.15-2.54.38-3.28.69-.74.31-1.24.85-1.52,1.61-.28.76-.41,1.94-.41,3.54v11.92c-3.62,0-7.55.47-11.77,1.42-3.05.67-5.34,1.14-6.86,1.41-1.52.26-3.32.39-5.4.39-5.5,0-10.21-1.29-14.13-3.86-3.92-2.57-6.87-5.88-8.83-9.93-1.96-4.05-2.94-8.21-2.94-12.48,0-4.9,1.16-9.36,3.49-13.4,2.32-4.03,5.47-7.21,9.45-9.52,3.97-2.31,8.32-3.47,13.04-3.47,5.75,0,10.98,1.99,15.7,5.96.57-1.07,1.04-2.55,1.39-4.42h3.64l.37,16.64h-3.45c-.52-2.52-1.51-4.83-2.96-6.93-1.45-2.1-3.26-3.76-5.42-4.99-2.16-1.22-4.54-1.84-7.14-1.84-1.9,0-3.76.33-5.58.99-1.82.66-3.53,1.81-5.12,3.45-1.59,1.64-2.86,3.87-3.82,6.69-.96,2.82-1.44,6.31-1.44,10.46,0,3.55.37,6.96,1.12,10.23.75,3.27,2.27,6.08,4.57,8.43,2.3,2.35,5.55,3.52,9.75,3.52,3.3,0,5.8-.52,7.5-1.56,1.7-1.04,2.8-2.31,3.32-3.8.51-1.5.77-3.17.77-5.02,0-1.75-.13-3.02-.39-3.82-.26-.8-.87-1.39-1.84-1.76-.96-.37-2.44-.56-4.44-.56v-3.45h22.64v3.45Z"/>
    <path class="cls-14" d="M477.05,106.41l-.41,16.72h-45.28v-3.45c3.12,0,5.13-.45,6.03-1.35s1.35-2.45,1.35-4.65v-31.93c0-1.45-.14-2.58-.43-3.39-.29-.81-.96-1.45-2.02-1.91-1.06-.46-2.71-.69-4.93-.69v-3.45h42.17l.67,13.19h-3.45c-.77-2.92-1.67-5.02-2.68-6.28-1.01-1.26-2.15-2.04-3.41-2.32-1.26-.29-3.15-.43-5.68-.43h-9.52v17.95h5.17c1.77,0,3.1-.16,3.97-.47.87-.31,1.49-.91,1.84-1.78.35-.87.59-2.25.71-4.12h3.6v16.9h-3.45c-.1-1.87-.35-3.25-.75-4.14-.4-.89-1.03-1.48-1.89-1.78-.86-.3-2.18-.45-3.95-.45h-5.25v11.96c0,2,.05,3.46.15,4.39.1.92.37,1.69.81,2.31.44.61,1.15,1.06,2.14,1.33.99.28,2.39.41,4.22.41h4.09c1.72,0,3.37-.22,4.93-.66,1.56-.44,3.09-1.56,4.59-3.37,1.5-1.81,2.55-4.65,3.15-8.53h3.52Z"/>
    <path class="cls-14" d="M513.67,117.5h1.39c-.23,4.27-2.32,6.41-6.3,6.41-1.7,0-3.04-.45-4.03-1.35-.99-.9-1.63-2.24-1.93-4.01-2.5,1.77-4.78,3.11-6.84,4.01-2.06.9-3.9,1.35-5.53,1.35-2.07,0-3.86-.6-5.36-1.8-1.5-1.2-2.25-2.79-2.25-4.76,0-2.57,1.26-4.82,3.77-6.75,2.51-1.92,5.98-3.8,10.4-5.62l5.81-2.36v-1.5c0-2.12-.14-3.66-.41-4.61-.28-.95-.99-1.8-2.14-2.55-1.15-.75-2.66-1.12-4.54-1.12-3.75,0-5.83,1.25-6.26,3.75-.4,2.55-1.45,3.82-3.15,3.82-1.52,0-2.29-.72-2.29-2.17s1.01-2.95,3.04-4.59c2.02-1.64,5.17-2.46,9.45-2.46,3.17,0,5.63.5,7.38,1.5,1.75,1,2.9,2.14,3.47,3.41.56,1.27.84,3.22.84,5.85v12.41c0,2.9.15,4.76.45,5.58s.95,1.24,1.95,1.24c1.65,0,2.67-1.22,3.07-3.67ZM502.8,104.38l-4.09,1.65c-6.45,2.62-9.67,5.92-9.67,9.89,0,1.57.41,2.84,1.24,3.8.82.96,1.9,1.44,3.22,1.44,1.17,0,2.54-.39,4.09-1.16,1.55-.77,3.29-1.94,5.21-3.49v-12.14Z"/>
    <path class="cls-14" d="M518.95,124.1v-10.08h1.46c1.7,5.82,4.73,8.73,9.11,8.73,1.9,0,3.32-.57,4.25-1.72.94-1.15,1.41-2.41,1.41-3.79,0-1.6-.5-2.91-1.5-3.94-1.03-1.02-3.01-2.26-5.96-3.71-3.1-1.52-5.32-3.02-6.67-4.5-1.35-1.45-2.02-3.24-2.02-5.36s.72-3.95,2.17-5.79c1.45-1.84,3.49-2.75,6.11-2.75s4.89,1.09,6.63,3.26c.37-.37.86-1.29,1.46-2.74h1.39v9.48h-1.39c-.5-2.27-1.47-4.23-2.9-5.87-1.44-1.64-3.13-2.46-5.08-2.46-1.5,0-2.71.46-3.64,1.39-.92.92-1.39,2-1.39,3.22,0,1.35.51,2.51,1.54,3.49,1,1,2.91,2.14,5.73,3.41,4.25,1.92,6.85,3.8,7.8,5.62.95,1.85,1.42,3.62,1.42,5.32,0,2.67-.88,4.85-2.64,6.52-1.76,1.67-3.98,2.51-6.65,2.51-2.82,0-5.33-1.16-7.53-3.49-.67.75-1.22,1.82-1.65,3.22h-1.46Z"/>
    <path class="cls-14" d="M561.34,117.31l7.12-17.05c1.02-2.5,1.54-3.89,1.54-4.16,0-1.25-1.39-1.9-4.16-1.95v-1.72h10.79v1.72c-1.67.08-2.9.52-3.67,1.33-.77.81-1.74,2.6-2.89,5.38l-13.68,33.02c-1.3,3.15-2.45,5.29-3.45,6.43-1,1.14-2.1,1.71-3.3,1.71-1.62,0-2.44-.74-2.44-2.21,0-1.7,1.3-3.14,3.9-4.31,1.52-.67,2.54-1.25,3.05-1.72.51-.47,1.02-1.34,1.52-2.59l2.92-7.31-11.54-24.74c-1.03-2.17-1.87-3.55-2.55-4.12-.67-.57-1.82-.86-3.45-.86v-1.72h14.09v1.72c-2.47.08-3.71.59-3.71,1.54,0,.37.49,1.6,1.46,3.67l8.43,17.95Z"/>
  </g>
</svg>
