<svg width="19" height="18" viewBox="0 0 19 18" fill="none" xmlns="http://www.w3.org/2000/svg">
<path d="M10.2021 5.2875V5.37884L10.1111 5.38709C9.00169 5.48777 6.91903 5.82878 5.11635 6.98878C3.31985 8.14481 1.79599 10.1169 1.79601 13.5L1.79596 13.5023C1.7928 13.6403 1.83462 13.7759 1.91561 13.8893C1.99654 14.0026 2.11242 14.0879 2.24663 14.1324C2.37859 14.1746 2.52074 14.1753 2.65312 14.1343C2.78563 14.0933 2.90143 14.0127 2.98448 13.9042L2.98425 13.904L2.98923 13.8985C3.79378 12.9955 4.78879 12.2754 5.90511 11.7879C7.02119 11.3005 8.23187 11.0572 9.45319 11.075H10.1021H10.2021V11.175V13.4998C10.2026 13.6271 10.2414 13.7515 10.3137 13.8576C10.3861 13.9638 10.489 14.047 10.6097 14.0964C10.7304 14.1459 10.8634 14.1594 10.992 14.1351C11.1204 14.1109 11.2384 14.0502 11.3315 13.9608C11.3316 13.9606 11.3318 13.9605 11.3319 13.9604L16.6805 8.71113L16.6808 8.71084C16.7429 8.65033 16.7922 8.57843 16.8257 8.49936C16.8593 8.42028 16.8766 8.33554 16.8766 8.25C16.8766 8.16445 16.8593 8.07971 16.8257 8.00064C16.7922 7.92157 16.7429 7.84967 16.6808 7.78916L16.6805 7.78887L11.3314 2.53916C11.3314 2.53911 11.3313 2.53907 11.3313 2.53902C11.2078 2.41886 11.0407 2.35078 10.8661 2.35C10.6894 2.35005 10.5203 2.41898 10.3959 2.54104C10.2716 2.66309 10.2021 2.82822 10.2021 3V5.2875ZM9.45282 9.76L9.45203 9.76C7.3233 9.74979 5.24822 10.414 3.53517 11.6535L3.31135 11.8155L3.37965 11.5478C3.98634 9.16991 5.69143 7.94456 7.32169 7.31576C8.94987 6.68776 10.5135 6.65 10.8663 6.65C11.043 6.65 11.2122 6.58107 11.3366 6.45896C11.4609 6.33691 11.5304 6.17178 11.5304 6V4.8075V4.56888L11.7006 4.73621L15.2006 8.1787L15.273 8.25L15.2006 8.32129L11.7006 11.7638L11.5304 11.9311V11.6925V10.5V10.4999C11.5307 10.3448 11.4742 10.1944 11.3708 10.0763C11.2676 9.9583 11.1244 9.88017 10.967 9.85653C10.4651 9.7907 9.95919 9.75844 9.45282 9.76Z" fill="#D23C51" stroke="white" stroke-width="0.2"/>
</svg>
