<svg width="48" height="44" viewBox="0 0 48 44" fill="none" xmlns="http://www.w3.org/2000/svg">
<path d="M24 32.712L11.616 40.2L14.928 26.136L4.032 16.68L18.384 15.432L24 2.232L29.616 15.432L43.968 16.68L33.12 26.136L36.384 40.2L24 32.712Z" fill="#F39200"/>
<path d="M24 32.712L24.5174 31.8563L24 31.5434L23.4826 31.8563L24 32.712ZM11.616 40.2L10.6426 39.9708L10.0972 42.2869L12.1334 41.0557L11.616 40.2ZM14.928 26.136L15.9014 26.3652L16.0399 25.7769L15.5834 25.3808L14.928 26.136ZM4.032 16.68L3.94537 15.6838L1.59396 15.8882L3.37656 17.4352L4.032 16.68ZM18.384 15.432L18.4706 16.4282L19.069 16.3762L19.3042 15.8235L18.384 15.432ZM24 2.232L24.9202 1.8405L24 -0.322313L23.0798 1.8405L24 2.232ZM29.616 15.432L28.6958 15.8235L28.931 16.3762L29.5294 16.4282L29.616 15.432ZM43.968 16.68L44.6251 17.4338L46.3989 15.8876L44.0546 15.6838L43.968 16.68ZM33.12 26.136L32.4629 25.3822L32.0101 25.7769L32.1459 26.3621L33.12 26.136ZM36.384 40.2L35.8666 41.0557L37.8936 42.2814L37.3581 39.9739L36.384 40.2ZM23.4826 31.8563L11.0986 39.3443L12.1334 41.0557L24.5174 33.5677L23.4826 31.8563ZM12.5894 40.4292L15.9014 26.3652L13.9546 25.9068L10.6426 39.9708L12.5894 40.4292ZM15.5834 25.3808L4.68744 15.9247L3.37656 17.4352L14.2726 26.8912L15.5834 25.3808ZM4.11863 17.6762L18.4706 16.4282L18.2974 14.4358L3.94537 15.6838L4.11863 17.6762ZM19.3042 15.8235L24.9202 2.62349L23.0798 1.8405L17.4638 15.0405L19.3042 15.8235ZM23.0798 2.62349L28.6958 15.8235L30.5362 15.0405L24.9202 1.8405L23.0798 2.62349ZM29.5294 16.4282L43.8814 17.6762L44.0546 15.6838L29.7026 14.4358L29.5294 16.4282ZM43.3109 15.9262L32.4629 25.3822L33.7771 26.8898L44.6251 17.4338L43.3109 15.9262ZM32.1459 26.3621L35.4099 40.4261L37.3581 39.9739L34.0941 25.9099L32.1459 26.3621ZM36.9014 39.3443L24.5174 31.8563L23.4826 33.5677L35.8666 41.0557L36.9014 39.3443Z" fill="#F39200"/>
</svg>
